<svg width="123" height="23" viewBox="0 0 123 23" fill="none" xmlns="http://www.w3.org/2000/svg">
<path d="M34.419 19.467V7.32H30.268V5.22H41.195V7.32H37.024V19.467H34.419ZM44.47 7.808C44.0391 7.8243 43.6191 7.67099 43.3 7.381C43.1511 7.24446 43.0333 7.07757 42.9545 6.8916C42.8756 6.70563 42.8376 6.50492 42.843 6.303C42.8369 6.10231 42.8746 5.90269 42.9535 5.71807C43.0324 5.53344 43.1507 5.36825 43.3 5.234C43.6219 4.94974 44.0409 4.8004 44.47 4.817C44.8991 4.8004 45.3181 4.94974 45.64 5.234C45.7895 5.36816 45.9079 5.53331 45.987 5.71794C46.0661 5.90257 46.104 6.10223 46.098 6.303C46.1032 6.50499 46.065 6.70576 45.986 6.89173C45.907 7.0777 45.789 7.24455 45.64 7.381C45.3212 7.67074 44.9015 7.82403 44.471 7.808H44.47ZM43.17 19.466V9.375H45.77V19.467L43.17 19.466ZM48.501 19.466V9.375H50.801L51.001 11.084C51.3087 10.4908 51.7777 9.99646 52.354 9.658C52.9876 9.29477 53.7088 9.11247 54.439 9.131C54.9812 9.09988 55.5236 9.18949 56.027 9.39337C56.5304 9.59726 56.9822 9.91033 57.35 10.31C58.107 11.2975 58.4762 12.5279 58.388 13.769V19.469H55.783V14.016C55.8297 13.3116 55.6446 12.6113 55.256 12.022C55.0568 11.7827 54.8031 11.5947 54.5161 11.4739C54.2291 11.3531 53.9173 11.3031 53.607 11.328C53.2688 11.3179 52.9324 11.3819 52.6215 11.5154C52.3106 11.6489 52.0326 11.8488 51.807 12.101C51.3087 12.7053 51.0585 13.4763 51.107 14.258V19.467L48.501 19.466ZM60.871 19.466V4.818H63.471V13.465L67.052 9.375H70.142L66.014 13.975L70.814 19.468H67.559L63.469 14.402V19.468L60.871 19.466ZM76.497 19.71C75.5534 19.7282 74.6209 19.5037 73.789 19.058C73.0119 18.6338 72.37 17.9992 71.937 17.227C71.4776 16.3931 71.2462 15.4528 71.266 14.501C71.2482 13.5307 71.4759 12.5717 71.928 11.713C72.3488 10.9211 72.9831 10.2628 73.759 9.813C74.6007 9.34421 75.5529 9.11006 76.516 9.135C77.4331 9.11667 78.3387 9.34127 79.141 9.786C79.8844 10.2034 80.4996 10.8162 80.92 11.558C81.351 12.3247 81.5721 13.1915 81.561 14.071C81.561 14.2217 81.5573 14.3777 81.55 14.539C81.5426 14.7003 81.5326 14.87 81.52 15.048H73.852C73.8594 15.3958 73.9357 15.7387 74.0767 16.0568C74.2176 16.3749 74.4203 16.6619 74.673 16.901C75.1647 17.3472 75.8091 17.5874 76.473 17.572C76.9427 17.5897 77.4071 17.4672 77.807 17.22C78.1559 16.9924 78.4333 16.6707 78.607 16.292H81.252C81.0617 16.9324 80.7399 17.5261 80.307 18.035C79.8615 18.5594 79.3056 18.9787 78.679 19.263C77.9915 19.5706 77.245 19.7235 76.492 19.711L76.497 19.71ZM76.517 11.246C75.9102 11.236 75.3168 11.4253 74.828 11.785C74.314 12.1878 73.9781 12.7757 73.892 13.423H78.918C78.9109 13.1225 78.8422 12.8266 78.7163 12.5537C78.5904 12.2807 78.4099 12.0365 78.186 11.836C77.7229 11.4371 77.1268 11.2269 76.516 11.247L76.517 11.246ZM83.76 19.466V9.375H86.079L86.323 11.267C86.6793 10.6266 87.1963 10.0899 87.823 9.71C88.4967 9.31187 89.2687 9.11091 90.051 9.13V11.877H89.319C88.7982 11.8685 88.2804 11.9584 87.793 12.142C87.3478 12.3162 86.9772 12.6401 86.745 13.058C86.4652 13.6194 86.3353 14.2436 86.368 14.87V19.47L83.76 19.466ZM91.817 19.466V9.375H94.117L94.317 11.084C94.6261 10.4901 95.0969 9.99572 95.675 9.658C96.3086 9.29477 97.0298 9.11247 97.76 9.131C98.3021 9.10015 98.8443 9.19 99.3476 9.39405C99.8508 9.5981 100.302 9.91128 100.67 10.311C101.427 11.2989 101.796 12.5297 101.707 13.771V19.471H99.098V14.018C99.1447 13.3136 98.9596 12.6133 98.571 12.024C98.3717 11.7852 98.118 11.5977 97.8313 11.4772C97.5445 11.3568 97.233 11.307 96.923 11.332C96.5847 11.3219 96.2484 11.3859 95.9375 11.5194C95.6265 11.6529 95.3486 11.8528 95.123 12.105C94.6246 12.7078 94.3734 13.4772 94.42 14.258V19.467L91.817 19.466ZM109.091 19.71C108.148 19.728 107.216 19.5035 106.384 19.058C105.607 18.6338 104.965 17.9992 104.532 17.227C104.073 16.3931 103.841 15.4528 103.861 14.501C103.843 13.5308 104.07 12.5718 104.522 11.713C104.943 10.9211 105.577 10.2628 106.353 9.813C107.195 9.34421 108.147 9.11006 109.11 9.135C110.027 9.11667 110.933 9.34127 111.735 9.786C112.48 10.2056 113.096 10.8216 113.516 11.567C113.947 12.3337 114.168 13.2005 114.157 14.08C114.157 14.2307 114.153 14.3867 114.146 14.548C114.139 14.7093 114.128 14.879 114.115 15.057H106.445C106.453 15.4044 106.53 15.7466 106.672 16.064C106.813 16.3814 107.016 16.6676 107.269 16.906C107.761 17.3522 108.405 17.5924 109.069 17.577C109.539 17.5925 110.002 17.4679 110.401 17.219C110.749 16.9922 111.027 16.6716 111.201 16.294H113.846C113.657 16.9332 113.337 17.5262 112.907 18.035C112.461 18.5596 111.904 18.979 111.277 19.263C110.59 19.5706 109.843 19.7235 109.09 19.711L109.091 19.71ZM109.111 11.246C108.504 11.236 107.911 11.4253 107.422 11.785C106.907 12.1873 106.57 12.7753 106.483 13.423H111.507C111.5 13.1225 111.431 12.8266 111.305 12.5537C111.179 12.2807 110.999 12.0365 110.775 11.836C110.313 11.4379 109.719 11.2274 109.11 11.246H109.111ZM120.667 19.467C119.755 19.513 118.856 19.2396 118.124 18.694C117.769 18.3369 117.499 17.9046 117.334 17.4292C117.168 16.9538 117.112 16.4472 117.168 15.947V11.558H115.438V9.381H117.167L117.467 6.675H119.767V9.381H122.493V11.558H119.772V15.973C119.751 16.1535 119.768 16.3364 119.823 16.5099C119.877 16.6833 119.967 16.8435 120.087 16.98C120.407 17.1946 120.791 17.2917 121.175 17.255H122.436V19.47L120.667 19.467Z" fill="white"/>
<path fill-rule="evenodd" clip-rule="evenodd" d="M19.152 5.05901L21.224 4.79399L22.399 6.899L21.084 8.386C21.2438 8.84279 21.3698 9.31071 21.461 9.786L23.371 10.476L23.335 12.887L21.451 13.518C21.3593 13.9932 21.2334 14.4611 21.074 14.918L22.385 16.473L21.148 18.544L19.204 18.144C18.8866 18.5102 18.5427 18.8524 18.175 19.168L18.532 21.168L16.426 22.343L15.432 21.464V17.655C16.2954 17.1184 17.0334 16.4024 17.5959 15.5556C18.1584 14.7088 18.5323 13.7509 18.6922 12.747C18.8521 11.743 18.7942 10.7164 18.5226 9.73677C18.251 8.75712 17.772 7.84729 17.118 7.06898L19.153 5.05299L19.152 5.05901ZM6.19098 7.15901C5.55515 7.93995 5.09291 8.84733 4.83499 9.82079C4.57707 10.7942 4.52939 11.8115 4.69513 12.8048C4.86087 13.7981 5.23623 14.7447 5.79623 15.5817C6.35624 16.4187 7.08804 17.1268 7.94298 17.659V21.407L6.84798 22.329L4.77698 21.092L5.17198 19.149C4.80581 18.8316 4.46355 18.4877 4.14798 18.12L2.14798 18.477L0.972977 16.371L2.28798 14.884C2.12813 14.4272 2.00212 13.9593 1.91098 13.484L0.000976562 12.794L0.0359802 10.383L1.91998 9.752C2.01154 9.27681 2.13754 8.80891 2.29698 8.35201L0.986984 6.79701L2.22298 4.726L4.15398 5.119L6.19098 7.15901Z" fill="url(#paint0_linear_1_1144)"/>
<path fill-rule="evenodd" clip-rule="evenodd" d="M4.88098 2.147L6.98698 0.971985L8.47298 2.28699C8.92975 2.12712 9.3977 2.00113 9.87299 1.91L10.563 0L12.974 0.0350037L13.604 1.91901C14.0791 2.01072 14.547 2.1367 15.004 2.29599L16.559 0.985992L18.629 2.22299L18.234 4.16599C18.3766 4.28932 18.5156 4.41732 18.651 4.54999L16.633 6.56799C16.2925 6.24091 15.9203 5.94848 15.522 5.69501L14.346 4.94598V12.018L13.033 12.776L11.72 13.534L10.407 12.776L9.09396 12.018V4.94098L7.91798 5.69C7.4903 5.96359 7.09304 6.28205 6.73297 6.63998L4.71597 4.62299C4.88197 4.45899 5.05464 4.29966 5.23398 4.14499L4.88098 2.147Z" fill="white"/>
<defs>
<linearGradient id="paint0_linear_1_1144" x1="17.435" y1="16.2123" x2="6.92997" y2="6.6394" gradientUnits="userSpaceOnUse">
<stop stop-color="#30BCD0"/>
<stop offset="1" stop-color="#CA28CC"/>
</linearGradient>
</defs>
</svg>
