<?xml version="1.0" standalone="no"?>
<!DOCTYPE svg PUBLIC "-//W3C//DTD SVG 20010904//EN"
 "http://www.w3.org/TR/2001/REC-SVG-20010904/DTD/svg10.dtd">
<svg version="1.0" xmlns="http://www.w3.org/2000/svg"
 width="261.000000pt" height="261.000000pt" viewBox="0 0 261.000000 261.000000"
 preserveAspectRatio="xMidYMid meet">
<metadata>
Created by potrace 1.14, written by Peter Selinger 2001-2017
</metadata>
<g transform="translate(0.000000,261.000000) scale(0.100000,-0.100000)"
fill="#000000" stroke="none">
<path d="M1240 2302 l-45 -3 -30 -81 -30 -81 -48 -14 c-54 -16 -57 -15 -127
50 -28 26 -53 47 -56 47 -3 0 -52 -25 -109 -56 l-102 -56 9 -46 c5 -26 11 -63
14 -82 3 -19 8 -37 10 -39 2 -3 -8 -17 -23 -33 l-27 -29 102 -101 102 -102 32
30 c38 36 119 92 139 96 11 2 14 -48 15 -277 2 -329 1 -315 15 -315 6 0 60
-29 121 -65 l110 -65 124 71 c75 43 124 78 125 88 0 9 1 141 1 294 1 152 3
277 6 277 7 0 124 -81 146 -101 11 -11 23 -19 27 -19 11 0 199 189 199 200 0
5 -7 13 -16 18 -20 11 -20 36 -1 125 l15 67 -100 60 c-54 33 -101 60 -104 60
-7 0 -116 -91 -125 -104 -4 -4 -31 -3 -61 4 l-55 12 -27 83 -28 84 -76 3 c-43
2 -97 2 -122 0z"/>
<path d="M431 1785 c-28 -47 -51 -89 -51 -94 0 -8 15 -27 69 -86 41 -46 41
-47 23 -111 l-18 -59 -64 -22 c-36 -12 -66 -23 -67 -24 -2 -1 -9 -2 -15 -3 -9
-1 -14 -32 -16 -109 -3 -122 -15 -104 104 -148 59 -22 62 -24 72 -68 6 -26 13
-53 16 -61 3 -9 -17 -40 -53 -79 l-58 -64 39 -71 c71 -127 54 -115 152 -99
l86 15 45 -44 45 -45 -15 -72 c-8 -40 -15 -78 -15 -85 0 -12 161 -116 178
-116 4 0 27 18 52 39 l45 39 0 162 1 162 -41 31 c-261 200 -328 558 -154 828
l41 62 -87 87 c-86 86 -88 88 -161 104 -41 9 -81 16 -88 16 -8 0 -37 -38 -65
-85z"/>
<path d="M2118 1865 c-1 -1 -30 -6 -63 -9 -33 -4 -68 -8 -78 -9 -10 -2 -58
-43 -106 -91 l-88 -88 38 -56 c181 -273 118 -638 -146 -839 l-40 -31 0 -166 0
-166 45 -39 45 -39 27 19 c14 11 29 19 32 19 2 0 32 16 66 36 51 30 59 38 54
58 -7 28 -9 39 -19 99 -8 49 -7 49 40 94 35 33 53 43 69 39 83 -22 137 -28
151 -16 8 7 15 18 15 25 0 7 8 23 18 36 10 13 29 43 42 66 l23 41 -57 69 c-35
42 -54 73 -50 83 3 8 10 36 16 61 l11 45 76 24 c42 13 79 28 82 32 3 5 5 54 5
110 l-1 102 -81 29 -82 29 -15 61 -15 62 54 61 c30 34 54 64 54 68 0 4 -21 45
-47 91 -41 74 -63 101 -75 90z"/>
</g>
</svg>
