<svg width="24" height="27" viewBox="0 0 24 27" fill="none" xmlns="http://www.w3.org/2000/svg">
<path d="M17.125 5C13.2695 5 10.25 6.81225 10.25 9.125V11.4964C9.80633 11.4442 9.34708 11.4167 8.875 11.4167C5.0195 11.4167 2 13.2289 2 15.5417V22.875C2 25.1877 5.0195 27 8.875 27C12.0063 27 14.5868 25.8047 15.4447 24.1162C15.992 24.1959 16.5512 24.25 17.125 24.25C20.9805 24.25 24 22.4377 24 20.125V9.125C24 6.81225 20.9805 5 17.125 5ZM17.125 6.83333C20.0107 6.83333 22.1667 8.04333 22.1667 9.125C22.1667 10.2067 20.0107 11.4167 17.125 11.4167C14.2393 11.4167 12.0833 10.2067 12.0833 9.125C12.0833 8.04333 14.2393 6.83333 17.125 6.83333ZM8.875 13.25C11.7607 13.25 13.9167 14.46 13.9167 15.5417C13.9167 16.6233 11.7607 17.8333 8.875 17.8333C5.98933 17.8333 3.83333 16.6233 3.83333 15.5417C3.83333 14.46 5.98933 13.25 8.875 13.25ZM3.83333 18.3668C5.08 19.1689 6.86108 19.6667 8.875 19.6667C10.8889 19.6667 12.67 19.1689 13.9167 18.3668V19.2083C13.9167 20.29 11.7607 21.5 8.875 21.5C5.98933 21.5 3.83333 20.29 3.83333 19.2083V18.3668ZM8.875 25.1667C5.98933 25.1667 3.83333 23.9567 3.83333 22.875V22.0335C5.08 22.8356 6.86108 23.3333 8.875 23.3333C10.8889 23.3333 12.67 22.8356 13.9167 22.0335V22.875C13.9167 23.9567 11.7607 25.1667 8.875 25.1667ZM17.125 22.4167C16.6538 22.4167 16.1973 22.3736 15.75 22.3103V20.4953C16.201 20.5485 16.6575 20.5833 17.125 20.5833C19.1389 20.5833 20.92 20.0856 22.1667 19.2835V20.125C22.1667 21.2067 20.0107 22.4167 17.125 22.4167ZM17.125 18.75C16.6538 18.75 16.1973 18.7069 15.75 18.6437V16.8287C16.201 16.8818 16.6575 16.9167 17.125 16.9167C19.1389 16.9167 20.92 16.4189 22.1667 15.6168V16.4583C22.1667 17.54 20.0107 18.75 17.125 18.75ZM17.125 15.0833C16.6282 15.0833 16.1478 15.0366 15.6785 14.9669C15.497 14.1538 14.9369 13.4233 14.1009 12.8393C15.0103 13.1006 16.0314 13.2509 17.125 13.2509C19.1389 13.2509 20.92 12.7532 22.1667 11.9511V12.7926C22.1667 13.8743 20.0107 15.0843 17.125 15.0843V15.0833Z" fill="#5E616A"/>
<rect x="2" y="5" width="13" height="10" fill="#393A3E"/>
<path d="M12.8752 2.1H12.875H12.4V1.625C12.4 1.41946 12.3183 1.22233 12.173 1.07699L12.0675 1.18249L12.173 1.07699C12.0277 0.931651 11.8305 0.85 11.625 0.85C11.4195 0.85 11.2223 0.931651 11.077 1.07699C10.9317 1.22233 10.85 1.41946 10.85 1.625V2.1H6.15V1.625C6.15 1.41946 6.06835 1.22233 5.92301 1.07699L5.81863 1.18137L5.92301 1.07699C5.77767 0.931652 5.58054 0.85 5.375 0.85C5.16946 0.85 4.97233 0.931652 4.82699 1.07699C4.68165 1.22233 4.6 1.41946 4.6 1.625V2.1L4.125 2.1L4.12482 2.1C3.2566 2.10104 2.42424 2.4464 1.81032 3.06032C1.1964 3.67424 0.85104 4.5066 0.85 5.37482V5.375L0.85 12.875L0.85 12.8752C0.85104 13.7434 1.1964 14.5758 1.81032 15.1897C2.42424 15.8036 3.2566 16.149 4.12482 16.15H4.125L12.875 16.15L12.8752 16.15C13.7434 16.149 14.5758 15.8036 15.1897 15.1897C15.8036 14.5758 16.149 13.7434 16.15 12.8752V12.875L16.15 5.375L16.15 5.37482C16.149 4.5066 15.8036 3.67424 15.1897 3.06032C14.5758 2.4464 13.7434 2.10104 12.8752 2.1ZM2.4 5.375C2.4 4.9175 2.58174 4.47874 2.90524 4.15524C3.22874 3.83174 3.6675 3.65 4.125 3.65H12.875C13.3325 3.65 13.7713 3.83174 14.0948 4.15524C14.4183 4.47874 14.6 4.9175 14.6 5.375V5.85H2.4V5.375ZM4.125 14.6C3.6675 14.6 3.22874 14.4183 2.90524 14.0948C2.58174 13.7713 2.4 13.3325 2.4 12.875V7.4H14.6V12.875C14.6 13.3325 14.4183 13.7713 14.0948 14.0948C13.7713 14.4183 13.3325 14.6 12.875 14.6H4.125ZM8.5 11.4625C9.10061 11.4625 9.5875 10.9756 9.5875 10.375C9.5875 9.77439 9.10061 9.2875 8.5 9.2875C7.89939 9.2875 7.4125 9.77439 7.4125 10.375C7.4125 10.9756 7.89939 11.4625 8.5 11.4625ZM5.375 11.4625C5.97561 11.4625 6.4625 10.9756 6.4625 10.375C6.4625 9.77439 5.97561 9.2875 5.375 9.2875C4.77439 9.2875 4.2875 9.77439 4.2875 10.375C4.2875 10.9756 4.77439 11.4625 5.375 11.4625ZM11.625 11.4625C12.2256 11.4625 12.7125 10.9756 12.7125 10.375C12.7125 9.77439 12.2256 9.2875 11.625 9.2875C11.0244 9.2875 10.5375 9.77439 10.5375 10.375C10.5375 10.9756 11.0244 11.4625 11.625 11.4625Z" fill="#5E616A" stroke="#5E616A" stroke-width="0.3"/>
</svg>
