<svg width="1029" height="653" viewBox="0 0 1029 653" fill="none" xmlns="http://www.w3.org/2000/svg">
<path d="M521.167 642.205C780.285 642.205 990.342 553.315 990.342 443.664C990.342 334.013 780.285 245.123 521.167 245.123C262.049 245.123 51.992 334.013 51.992 443.664C51.992 553.315 262.049 642.205 521.167 642.205Z" stroke="#8F8E8E" stroke-width="0.15" stroke-linecap="round" stroke-linejoin="round"/>
<path d="M522.991 466.49C553.426 466.49 578.098 445.995 578.098 420.713C578.098 395.431 553.426 374.936 522.991 374.936C492.556 374.936 467.884 395.431 467.884 420.713C467.884 445.995 492.556 466.49 522.991 466.49Z" fill="#473F59" stroke="black" stroke-width="0.15" stroke-linecap="round" stroke-linejoin="round"/>
<path d="M578.098 422.269H577.636C577.949 423.255 578.105 424.284 578.098 425.318C578.098 438.175 553.443 448.648 523.022 448.648C492.537 448.648 467.886 438.175 467.886 425.318C467.879 424.284 468.035 423.255 468.348 422.269H467.886V336.111C467.886 349.037 492.537 359.441 523.022 359.441C553.443 359.441 578.098 349.041 578.098 336.111V422.269Z" fill="#B2A0E1" stroke="black" stroke-width="0.15" stroke-linecap="round" stroke-linejoin="round"/>
<path d="M578.098 336.111C578.098 349.037 553.443 359.441 523.022 359.441C492.537 359.441 467.886 349.041 467.886 336.111H578.098Z" fill="#B2A0E1" stroke="black" stroke-width="0.15" stroke-linecap="round" stroke-linejoin="round"/>
<path d="M578.098 336.111C578.098 349.037 553.443 359.441 523.022 359.441C492.537 359.441 467.886 349.041 467.886 336.111C467.886 323.254 492.537 312.781 523.022 312.781C553.441 312.781 578.098 323.254 578.098 336.111Z" fill="#B2A0E1" stroke="black" stroke-width="0.15" stroke-linecap="round" stroke-linejoin="round"/>
<path d="M622.536 241.859C635.842 223.509 643.816 201.837 645.578 179.239C647.341 156.641 642.822 133.996 632.522 113.805C622.222 93.6136 606.541 76.6624 587.212 64.8237C567.883 52.9851 545.657 46.7197 522.991 46.7197C500.324 46.7197 478.098 52.9851 458.769 64.8237C439.44 76.6624 423.759 93.6136 413.459 113.805C403.159 133.996 398.64 156.641 400.403 179.239C402.165 201.837 410.139 223.509 423.445 241.859L423.306 241.849C423.306 241.849 423.485 242.018 423.778 242.306C428.168 248.32 433.093 253.924 438.492 259.051C451.409 275.671 467.885 302.527 467.885 331.664C467.885 344.59 492.536 354.994 523.021 354.994C553.442 354.994 578.097 344.594 578.097 331.664C578.097 302.524 594.569 275.669 607.49 259.053C612.889 253.927 617.812 248.323 622.199 242.308C622.499 242.02 622.676 241.851 622.676 241.851L622.536 241.859Z" fill="#F5C252" stroke="#301F5C" stroke-width="0.1" stroke-linecap="round" stroke-linejoin="round"/>
<path opacity="0.6" d="M604.932 228.794C615.886 213.688 622.451 195.849 623.903 177.246C625.354 158.643 621.635 140.001 613.157 123.38C604.678 106.758 591.77 92.8034 575.858 83.0575C559.946 73.3116 541.65 68.1538 522.991 68.1538C504.331 68.1538 486.035 73.3116 470.123 83.0575C454.211 92.8034 441.303 106.758 432.824 123.38C424.346 140.001 420.627 158.643 422.078 177.246C423.53 195.849 430.095 213.688 441.049 228.794L440.93 228.784C440.93 228.784 441.079 228.928 441.322 229.166C444.936 234.115 448.99 238.727 453.434 242.946C464.071 256.627 477.628 301.935 477.628 325.925C477.628 336.562 497.928 345.125 523.016 345.125C548.059 345.125 568.354 336.559 568.354 325.925V302.72C568.354 278.735 581.911 256.627 592.548 242.946C596.991 238.725 601.044 234.113 604.66 229.166C604.903 228.928 605.052 228.784 605.052 228.784L604.932 228.794Z" fill="white" stroke="black" stroke-width="0.15" stroke-linecap="round" stroke-linejoin="round"/>
<path d="M616.662 491.497L718.862 446.705C720.311 446.016 721.534 444.931 722.391 443.575C723.248 442.218 723.704 440.647 723.704 439.043V439.043C723.704 437.615 723.343 436.21 722.655 434.958C721.967 433.706 720.975 432.648 719.77 431.882C718.565 431.115 717.186 430.665 715.76 430.574C714.335 430.482 712.91 430.751 711.616 431.356L616.662 471.736V491.497Z" fill="#B2A0E1" stroke="black" stroke-width="0.15" stroke-linecap="round" stroke-linejoin="round"/>
<path d="M622.055 651.338C628.709 655.231 647.604 644.679 651.055 643.398C659.591 640.225 659.879 626.182 659.879 626.182V533.618C659.879 533.618 676.142 526.681 676.142 502.04C676.142 477.399 660.425 467.647 660.425 467.647L639.475 477.332L640.587 502.444L621.201 480.232V448.319C621.201 448.319 608.677 452.356 608.677 478.208C608.677 504.06 621.201 514.161 621.201 514.161V612.316C621.201 635.745 622.055 651.338 622.055 651.338Z" fill="#E4D8FF" stroke="black" stroke-width="0.15" stroke-linecap="round" stroke-linejoin="round"/>
<path d="M613.648 647.902C636.789 661.449 637.355 633.794 637.355 633.794V541.226C637.355 541.226 653.613 534.294 653.613 509.653C653.613 485.012 639.475 477.335 639.475 477.335V503.595L618.067 510.056L598.676 487.838V455.927C598.676 455.927 586.157 459.964 586.157 485.817C586.157 511.67 598.676 521.77 598.676 521.77V619.93C598.676 643.358 613.648 647.902 613.648 647.902Z" fill="#DC5E91" stroke="black" stroke-width="0.15" stroke-linecap="round" stroke-linejoin="round"/>
<path d="M598.679 455.927L621.304 451.927L639.478 477.335V503.591L618.069 510.054L598.68 487.837L598.679 455.927Z" fill="#B2A0E1" stroke="black" stroke-width="0.15" stroke-linecap="round" stroke-linejoin="round"/>
<path d="M660.422 467.646L639.478 477.337L621.304 451.929L644.031 444.706L660.422 467.646Z" fill="#473F59" stroke="black" stroke-width="0.15" stroke-linecap="round" stroke-linejoin="round"/>
<path d="M621.303 451.928L598.678 455.928L617.847 448.318L644.03 444.707L621.303 451.928Z" fill="#E4D8FF" stroke="black" stroke-width="0.15" stroke-linecap="round" stroke-linejoin="round"/>
<path d="M64.837 282.561L64.199 319.086L33.58 333.923L33.445 297.072L64.837 282.561Z" fill="#B2A0E1" stroke="black" stroke-width="0.15" stroke-linecap="round" stroke-linejoin="round"/>
<path d="M1.527 282.44L32.17 268.154L64.838 282.561L33.447 297.071L1.527 282.44Z" fill="#B2A0E1" stroke="black" stroke-width="0.15" stroke-linecap="round" stroke-linejoin="round"/>
<path d="M64.837 282.561V319.461L33.58 333.923L33.445 297.072L64.837 282.561Z" fill="#F5C252" stroke="#301F5C" stroke-width="0.1" stroke-linecap="round" stroke-linejoin="round"/>
<path d="M1 282.665L32.169 268.155L64.833 282.562L33.442 297.072L1 282.665Z" fill="#E4D8FF" stroke="black" stroke-width="0.15" stroke-linecap="round" stroke-linejoin="round"/>
<path opacity="0.6" d="M1 264.744L32.169 250.236L64.833 264.636L33.442 279.146L1 264.744Z" fill="white" stroke="black" stroke-width="0.15" stroke-linecap="round" stroke-linejoin="round"/>
<path d="M1.005 282.613L1 319.833L33.58 333.923L33.446 297.072L1.005 282.613Z" fill="#B2A0E1" stroke="black" stroke-width="0.15" stroke-linecap="round" stroke-linejoin="round"/>
<path d="M1027.94 584.072L1027.26 622.548L995.014 638.178L994.873 599.358L1027.94 584.072Z" fill="#B2A0E1" stroke="black" stroke-width="0.15" stroke-linecap="round" stroke-linejoin="round"/>
<path d="M961.248 583.945L993.528 568.896L1027.94 584.073L994.873 599.359L961.248 583.945Z" fill="#B2A0E1" stroke="black" stroke-width="0.15" stroke-linecap="round" stroke-linejoin="round"/>
<path d="M1027.94 584.072L1027.95 622.941L995.014 638.178L994.873 599.358L1027.94 584.072Z" fill="#B2A0E1" stroke="black" stroke-width="0.15" stroke-linecap="round" stroke-linejoin="round"/>
<path d="M960.693 584.182L993.528 568.896L1027.94 584.073L994.868 599.359L960.693 584.182Z" fill="#E4D8FF" stroke="black" stroke-width="0.15" stroke-linecap="round" stroke-linejoin="round"/>
<path opacity="0.6" d="M960.693 565.303L993.528 550.017L1027.94 565.194L994.868 580.48L960.693 565.303Z" fill="white" stroke="black" stroke-width="0.15" stroke-linecap="round" stroke-linejoin="round"/>
<path d="M960.698 584.127L960.693 623.335L995.014 638.178L994.873 599.358L960.698 584.127Z" fill="#DC5E91" stroke="black" stroke-width="0.15" stroke-linecap="round" stroke-linejoin="round"/>
<path d="M291.304 174.094C291.304 174.094 292.247 219.283 292.247 233.744C292.247 243.611 269.096 254.223 269.096 263.857C269.096 268.902 273.096 281.657 267.835 283.09C262.574 284.523 252.371 274.802 253.166 260.29C253.961 245.778 258.43 237.015 255.559 233.027C252.688 229.039 236.108 221.069 229.89 217.881C223.672 214.693 221.602 207.914 221.602 201.459C221.602 192.267 231.484 197.129 231.484 197.129C231.484 197.129 221.057 189.742 221.057 179.852C221.057 173.908 228.118 175.398 228.118 175.398C228.118 175.398 222.685 169.965 222.685 163.664C222.685 157.363 230.074 160.188 230.074 160.188C230.074 160.188 226.489 154.865 226.489 151.279C226.489 147.693 227.14 146.502 231.489 147.584C235.838 148.666 291.304 174.094 291.304 174.094Z" fill="#97D0C5" stroke="black" stroke-width="0.15" stroke-linecap="round" stroke-linejoin="round"/>
<path d="M279.251 179.855C279.251 179.855 280.19 225.039 280.19 239.505C280.19 249.372 257.044 259.979 257.044 269.618C257.044 274.658 261.044 287.418 255.783 288.851C250.522 290.284 240.319 280.558 241.114 266.051C241.909 251.544 246.378 242.771 243.508 238.788C240.638 234.805 224.057 226.83 217.839 223.642C211.621 220.454 209.551 213.682 209.551 207.227C209.551 198.035 219.438 202.892 219.438 202.892C219.438 202.892 209.01 195.508 209.01 185.621C209.01 179.677 216.071 181.167 216.071 181.167C216.071 181.167 210.638 175.734 210.638 169.433C210.638 163.132 218.027 165.957 218.027 165.957C218.027 165.957 214.442 160.634 214.442 157.048C214.442 153.462 215.093 152.266 219.442 153.353C223.791 154.44 279.251 179.855 279.251 179.855Z" fill="#DC5E91" stroke="black" stroke-width="0.15" stroke-linecap="round" stroke-linejoin="round"/>
<path d="M216.772 152.97L228.172 147.304L291.308 174.095L292.251 233.745C291.357 237.502 289.361 240.907 286.52 243.523C281.753 247.938 272.333 255.623 270.813 258.992C269.293 262.361 269.08 263.192 269.813 269.902C270.546 276.612 270.151 281.795 268.999 282.446C267.847 283.097 257.374 287.794 257.374 287.794C258.004 283.75 258.129 279.643 257.746 275.568C257.046 269.624 255.846 266.183 263.446 259.345C271.046 252.507 280.216 243.683 280.196 239.511C280.176 235.339 279.257 179.861 279.257 179.861L216.772 152.97Z" fill="#B2A0E1" stroke="black" stroke-width="0.15" stroke-linecap="round" stroke-linejoin="round"/>
<path d="M805.181 190.671C805.181 190.671 804.237 150.08 804.237 135.619C804.237 125.29 816.046 114.584 822.794 107.468C825.494 104.623 816.594 89.814 816.594 88.374C816.594 88.374 823.387 83.11 828.651 81.674C833.915 80.238 844.115 89.967 843.315 104.474C842.515 118.981 838.056 127.754 840.926 131.737C843.796 135.72 860.377 143.695 866.595 146.883C872.813 150.071 874.883 156.849 874.883 163.305C874.883 172.497 868.929 171.141 868.929 171.141C871.884 174.241 875.429 179.151 875.429 184.911C875.429 190.855 869.659 190.657 870.985 192.711C872.693 195.187 873.669 198.093 873.801 201.098C873.801 207.398 867.817 206.66 868.87 209.098C869.523 210.476 869.908 211.966 870.002 213.488C870.078 214.519 869.929 215.554 869.565 216.522C868.994 217.649 858.928 225.59 855.76 224.244C840.279 217.665 805.181 190.671 805.181 190.671Z" fill="#473F59" stroke="black" stroke-width="0.15" stroke-linecap="round" stroke-linejoin="round"/>
<path d="M793.129 197.365C793.129 197.365 792.186 152.181 792.186 137.72C792.186 127.853 815.337 117.241 815.337 107.607C815.337 102.562 811.337 89.807 816.593 88.374C821.849 86.941 832.062 96.662 831.262 111.174C830.462 125.686 826.003 134.449 828.873 138.437C831.743 142.425 848.319 150.395 854.537 153.583C860.755 156.771 862.83 163.545 862.83 170.005C862.83 179.197 852.943 174.335 852.943 174.335C852.943 174.335 863.371 181.724 863.371 191.611C863.371 197.555 856.31 196.065 856.31 196.065C856.31 196.065 861.743 201.498 861.743 207.799C861.743 214.1 854.354 211.275 854.354 211.275C854.354 211.275 857.939 216.598 857.939 220.184C857.939 223.77 857.288 224.961 852.939 223.879C848.59 222.797 793.129 197.365 793.129 197.365Z" fill="#97D0C5" stroke="black" stroke-width="0.15" stroke-linecap="round" stroke-linejoin="round"/>
<path opacity="0.6" d="M775.684 213.022C775.684 213.022 774.74 167.838 774.74 153.377C774.74 143.505 797.886 132.898 797.886 123.259C797.886 118.219 793.886 105.466 799.147 104.031C804.408 102.596 814.616 112.319 813.816 126.831C813.016 141.343 808.557 150.106 811.422 154.094C814.287 158.082 830.873 166.047 837.091 169.24C843.309 172.433 845.384 179.202 845.384 185.657C845.384 194.849 835.497 189.992 835.497 189.992C835.497 189.992 845.925 197.381 845.925 207.268C845.925 213.212 838.863 211.722 838.863 211.722C838.863 211.722 844.296 217.155 844.296 223.456C844.296 229.757 836.907 226.932 836.907 226.932C836.907 226.932 840.492 232.255 840.492 235.841C840.492 239.427 839.841 240.618 835.492 239.531C831.143 238.444 775.684 213.022 775.684 213.022Z" fill="white" stroke="black" stroke-width="0.15" stroke-linecap="round" stroke-linejoin="round"/>
<g opacity="0.6">
<path d="M472.563 177.581C470.947 175.55 470.009 173.063 469.881 170.47C469.75 168.601 470.05 166.728 470.759 164.994C471.468 163.26 472.566 161.712 473.968 160.47C475.602 158.946 475.79 158.062 475.11 155.961C473.466 150.896 474.43 146.337 478.298 142.661C480.677 140.402 486.368 137.71 489.228 137.601C489.228 137.601 483.905 129.949 492.585 121.874C498.122 116.724 502.08 115.716 502.164 115.674C505.463 113.806 509.1 112.611 512.864 112.158C515.988 111.87 518.475 113.29 519.394 115.922C519.644 116.656 519.771 117.426 519.771 118.201C519.806 122.675 519.791 184.977 519.791 203.152C519.791 207.87 519.826 212.587 519.776 217.305C519.738 220.343 518.765 223.296 516.99 225.762C515.216 228.228 512.725 230.089 509.857 231.091C506.988 232.092 503.881 232.187 500.957 231.362C498.033 230.536 495.433 228.831 493.512 226.477C492.929 225.736 492.405 224.95 491.943 224.128C491.694 223.678 491.357 223.283 490.951 222.966C490.546 222.65 490.081 222.419 489.584 222.286C486.088 221.284 483.084 219.029 481.146 215.952C479.207 212.875 478.47 209.192 479.076 205.606C479.453 203.342 478.937 202.329 476.896 201.316C474.122 199.957 471.946 197.624 470.784 194.762C469.622 191.901 469.555 188.711 470.596 185.803C472.463 180.838 474.802 180.386 472.563 177.581Z" stroke="black" stroke-width="0.15" stroke-linecap="round" stroke-linejoin="round"/>
<path d="M575.376 185.804C576.418 188.712 576.352 191.902 575.19 194.764C574.027 197.626 571.851 199.959 569.076 201.317C567.035 202.33 566.519 203.343 566.901 205.607C567.506 209.194 566.769 212.877 564.83 215.955C562.89 219.032 559.885 221.286 556.388 222.287C555.891 222.419 555.427 222.65 555.022 222.967C554.618 223.283 554.281 223.679 554.034 224.129C553.571 224.951 553.044 225.737 552.46 226.478C550.539 228.832 547.939 230.537 545.015 231.363C542.091 232.188 538.984 232.093 536.115 231.092C533.247 230.09 530.756 228.229 528.981 225.763C527.207 223.297 526.234 220.344 526.196 217.306C526.146 212.588 526.181 207.871 526.181 203.153C526.186 184.978 526.166 122.676 526.201 118.202C526.201 117.427 526.328 116.657 526.578 115.923C527.497 113.291 529.99 111.871 533.108 112.159C536.872 112.611 540.509 113.806 543.808 115.675C543.892 115.72 547.85 116.728 553.387 121.875C562.067 129.95 556.744 137.602 556.744 137.602C559.604 137.711 565.295 140.402 567.674 142.662C571.542 146.337 572.511 150.895 570.867 155.962C570.187 158.062 570.375 158.947 572.004 160.471C573.407 161.713 574.506 163.26 575.215 164.994C575.925 166.728 576.226 168.602 576.096 170.471C575.964 173.063 575.026 175.548 573.414 177.582C571.165 180.386 573.509 180.838 575.376 185.804Z" stroke="black" stroke-width="0.15" stroke-linecap="round" stroke-linejoin="round"/>
</g>
<path d="M750.017 41.395C757.463 41.395 763.499 35.3589 763.499 27.913C763.499 20.4671 757.463 14.431 750.017 14.431C742.571 14.431 736.535 20.4671 736.535 27.913C736.535 35.3589 742.571 41.395 750.017 41.395Z" fill="#DC5E91"/>
<path d="M753.472 280.303C758.498 280.303 762.573 276.228 762.573 271.202C762.573 266.176 758.498 262.101 753.472 262.101C748.446 262.101 744.371 266.176 744.371 271.202C744.371 276.228 748.446 280.303 753.472 280.303Z" fill="#F5C252"/>
<path d="M188.621 394.973C193.647 394.973 197.722 390.898 197.722 385.872C197.722 380.846 193.647 376.771 188.621 376.771C183.595 376.771 179.52 380.846 179.52 385.872C179.52 390.898 183.595 394.973 188.621 394.973Z" fill="#97D0C5"/>
<path d="M906.752 409.375L955.43 322.875L1003.71 454.336L906.752 409.375Z" fill="#F5C252" stroke="#301F5C" stroke-width="0.1" stroke-linecap="round" stroke-linejoin="round"/>
<path d="M955.43 322.878L970.67 316.215L1020.86 446.167L1003.71 454.34L955.43 322.878Z" fill="#B2A0E1" stroke="black" stroke-width="0.15" stroke-linecap="round" stroke-linejoin="round"/>
<path d="M956.76 398.141C958.671 396.889 958.452 393.173 956.269 389.841C954.087 386.51 950.768 384.823 948.857 386.075C946.945 387.327 947.165 391.043 949.348 394.375C951.53 397.707 954.849 399.393 956.76 398.141Z" fill="#473F59" stroke="black" stroke-width="0.15" stroke-linecap="round" stroke-linejoin="round"/>
<path d="M956.779 385.541L964.094 377.889C964.094 377.889 968.141 381.713 972.194 389.931C974.593 394.643 975.902 399.835 976.023 405.122L962.297 397.917C962.409 395.711 961.984 393.511 961.056 391.506C960.075 389.234 958.616 387.199 956.779 385.541V385.541Z" fill="#473F59" stroke="black" stroke-width="0.15" stroke-linecap="round" stroke-linejoin="round"/>
<path d="M946.291 397.106L939.855 404.606C939.855 404.606 941.841 408.931 950.174 413.569C958.507 418.207 963.612 418.108 963.612 418.108L957.365 403.062C953.031 402.619 949.05 400.477 946.291 397.106V397.106Z" fill="#473F59" stroke="black" stroke-width="0.15" stroke-linecap="round" stroke-linejoin="round"/>
<path d="M944.299 386.827C944.162 386.078 944.211 385.306 944.441 384.58C944.672 383.854 945.076 383.195 945.62 382.661C947.52 380.675 950.641 381.717 950.641 381.717L943.257 365.717C943.257 365.717 937.104 365.34 933.886 370.449C930.668 375.558 931.145 378.588 931.145 378.588L944.299 386.827Z" fill="#473F59" stroke="black" stroke-width="0.15" stroke-linecap="round" stroke-linejoin="round"/>
<path d="M295.433 519.371L294.044 608.071L252.583 629.302L252.876 539.622L295.433 519.371Z" fill="#B2A0E1" stroke="black" stroke-width="0.15" stroke-linecap="round" stroke-linejoin="round"/>
<path d="M182.18 508.23V596.65L252.58 629.302L252.873 539.622L182.18 508.23Z" fill="#B2A0E1" stroke="black" stroke-width="0.15" stroke-linecap="round" stroke-linejoin="round"/>
<path d="M183.327 507.742L224.254 487.98L295.433 519.372L252.876 539.623L183.327 507.742Z" fill="#B2A0E1" stroke="black" stroke-width="0.15" stroke-linecap="round" stroke-linejoin="round"/>
<path d="M295.433 519.371L295.444 608.883L252.583 629.302L252.876 539.622L295.433 519.371Z" fill="#473F59" stroke="black" stroke-width="0.15" stroke-linecap="round" stroke-linejoin="round"/>
<path d="M182.18 508.23L224.255 487.979L295.434 519.371L252.877 539.622L182.18 508.23Z" fill="#E4D8FF" stroke="black" stroke-width="0.15" stroke-linecap="round" stroke-linejoin="round"/>
<path d="M280.388 453.527L279.382 517.766L249.354 533.142L249.566 468.193L280.388 453.527Z" fill="#B2A0E1" stroke="black" stroke-width="0.15" stroke-linecap="round" stroke-linejoin="round"/>
<path d="M198.366 445.459V510.459L249.354 533.143L249.566 468.194L198.366 445.459Z" fill="#97D0C5" stroke="black" stroke-width="0.15" stroke-linecap="round" stroke-linejoin="round"/>
<path d="M199.197 445.105L228.838 430.793L280.388 453.528L249.566 468.195L199.197 445.105Z" fill="#B2A0E1" stroke="black" stroke-width="0.15" stroke-linecap="round" stroke-linejoin="round"/>
<path d="M280.388 453.527L280.396 518.355L249.354 533.142L249.566 468.193L280.388 453.527Z" fill="#473F59" stroke="black" stroke-width="0.15" stroke-linecap="round" stroke-linejoin="round"/>
<path d="M198.366 445.459L228.838 430.793L280.388 453.528L249.566 468.195L198.366 445.459Z" fill="#E4D8FF" stroke="black" stroke-width="0.15" stroke-linecap="round" stroke-linejoin="round"/>
<path d="M268.607 422.375L267.89 451.958L246.49 462.918L246.641 432.829L268.607 422.375Z" fill="#B2A0E1" stroke="black" stroke-width="0.15" stroke-linecap="round" stroke-linejoin="round"/>
<path d="M210.144 416.62V446.743L246.487 462.92L246.638 432.831L210.144 416.62Z" fill="#B2A0E1" stroke="black" stroke-width="0.15" stroke-linecap="round" stroke-linejoin="round"/>
<path d="M210.734 416.372L231.864 406.172L268.607 422.372L246.634 432.83L210.734 416.372Z" fill="#B2A0E1" stroke="black" stroke-width="0.15" stroke-linecap="round" stroke-linejoin="round"/>
<path d="M268.607 422.375L268.613 452.375L246.485 462.918L246.636 432.829L268.607 422.375Z" fill="#473F59" stroke="black" stroke-width="0.15" stroke-linecap="round" stroke-linejoin="round"/>
<path d="M210.144 416.625L231.861 406.172L268.604 422.372L246.635 432.826L210.144 416.625Z" fill="#97D0C5" stroke="black" stroke-width="0.15" stroke-linecap="round" stroke-linejoin="round"/>
<path d="M182.18 581.718L252.58 611.774L295.441 592.264V585.038L252.58 603.865L182.18 574.337V581.718Z" fill="#B2A0E1" stroke="black" stroke-width="0.15" stroke-linecap="round" stroke-linejoin="round"/>
<path d="M182.18 560.05L252.58 590.106L295.441 570.596V563.368L252.58 582.195L182.18 552.668V560.05Z" fill="#B2A0E1" stroke="black" stroke-width="0.15" stroke-linecap="round" stroke-linejoin="round"/>
<path d="M182.18 536.25L252.58 566.306L295.441 546.796V539.57L252.58 558.397L182.18 528.869V536.25Z" fill="#B2A0E1" stroke="black" stroke-width="0.15" stroke-linecap="round" stroke-linejoin="round"/>
<path d="M78.847 494.759L79.934 546.792L112.385 563.409L112.156 510.609L78.847 494.759Z" fill="#B2A0E1" stroke="black" stroke-width="0.15" stroke-linecap="round" stroke-linejoin="round"/>
<path d="M147.786 494.143V545.957L112.386 563.409L112.157 510.609L147.786 494.143Z" fill="#B2A0E1" stroke="black" stroke-width="0.15" stroke-linecap="round" stroke-linejoin="round"/>
<path d="M146.887 493.76L114.854 478.293L78.847 494.759L112.156 510.609L146.887 493.76Z" fill="#B2A0E1" stroke="black" stroke-width="0.15" stroke-linecap="round" stroke-linejoin="round"/>
<path d="M78.847 494.759L78.839 547.428L112.385 563.41L112.156 510.61L78.847 494.759Z" fill="#DC5E91" stroke="black" stroke-width="0.15" stroke-linecap="round" stroke-linejoin="round"/>
<path d="M147.786 494.143L114.855 478.293L78.848 494.759L112.157 510.609L147.786 494.143Z" fill="#E4D8FF" stroke="black" stroke-width="0.15" stroke-linecap="round" stroke-linejoin="round"/>
<path d="M147.786 532.732L112.386 549.691L78.84 534.421V528.765L112.386 543.5L147.786 526.954V532.732Z" fill="#B2A0E1" stroke="black" stroke-width="0.15" stroke-linecap="round" stroke-linejoin="round"/>
<path d="M147.786 515.772L112.386 532.731L78.84 517.461V511.805L112.386 526.54L147.786 509.994V515.772Z" fill="#B2A0E1" stroke="black" stroke-width="0.15" stroke-linecap="round" stroke-linejoin="round"/>
<path d="M95.616 470.683L96.177 493.837L112.928 502.415L112.81 478.865L95.616 470.683Z" fill="#B2A0E1" stroke="black" stroke-width="0.15" stroke-linecap="round" stroke-linejoin="round"/>
<path d="M130.315 470.596V494.172L112.927 502.415L112.809 478.865L130.315 470.596Z" fill="#B2A0E1" stroke="black" stroke-width="0.15" stroke-linecap="round" stroke-linejoin="round"/>
<path d="M129.852 470.399L113.316 462.415L95.616 470.684L112.81 478.866L129.852 470.399Z" fill="#B2A0E1" stroke="black" stroke-width="0.15" stroke-linecap="round" stroke-linejoin="round"/>
<path d="M95.616 470.683V494.165L112.933 502.415L112.815 478.865L95.616 470.683Z" fill="#473F59" stroke="black" stroke-width="0.15" stroke-linecap="round" stroke-linejoin="round"/>
<path d="M130.316 470.596L113.316 462.414L95.616 470.683L112.81 478.865L130.316 470.596Z" fill="#97D0C5" stroke="black" stroke-width="0.15" stroke-linecap="round" stroke-linejoin="round"/>
<path opacity="0.6" d="M163.849 516.41V604.83L234.249 637.482L234.542 547.802L163.849 516.41Z" fill="white" stroke="black" stroke-width="0.15" stroke-linecap="round" stroke-linejoin="round"/>
<path d="M654.154 114.415L686.302 89.559L675.034 80.942L720.434 62.051L695.908 81.605L707.508 88.233L654.154 114.415Z" fill="#F5C252" stroke="#301F5C" stroke-width="0.1" stroke-linecap="round" stroke-linejoin="round"/>
<path d="M399.912 264.692L370.071 287.765L380.531 295.765L338.385 313.299L361.15 295.148L350.383 288.995L399.912 264.692Z" fill="#F5C252" stroke="#301F5C" stroke-width="0.1" stroke-linecap="round" stroke-linejoin="round"/>
<path d="M432.3 8.186C428.261 6.67693 424.649 4.21117 421.772 1C418.895 4.21117 415.283 6.67693 411.244 8.186C404.729 10.525 400.721 9.686 400.721 9.686C400.721 9.686 401.555 27.225 407.067 36.248C412.579 45.271 421.767 51.121 421.767 51.121C421.767 51.121 430.959 45.271 436.467 36.248C441.975 27.225 442.823 9.69199 442.823 9.69199C442.823 9.69199 438.815 10.525 432.3 8.186Z" fill="#ACEDE1" stroke="black" stroke-width="0.15" stroke-linecap="round" stroke-linejoin="round"/>
<path d="M664.141 271.118C660.103 269.607 656.491 267.142 653.613 263.932C650.737 267.142 647.127 269.608 643.09 271.118C636.575 273.457 632.562 272.618 632.562 272.618C632.562 272.618 633.396 290.162 638.913 299.18C644.43 308.198 653.613 314.053 653.613 314.053C653.613 314.053 662.805 308.203 668.313 299.18C673.821 290.157 674.664 272.618 674.664 272.618C674.664 272.618 670.656 273.457 664.141 271.118Z" fill="#ACEDE1" stroke="black" stroke-width="0.15" stroke-linecap="round" stroke-linejoin="round"/>
</svg>
