<svg width="13" height="13" viewBox="0 0 13 13" fill="none" xmlns="http://www.w3.org/2000/svg">
<path d="M5.53538 8.07996C5.62598 8.1707 5.74892 8.22175 5.87715 8.22186H5.87733L5.53538 8.07996ZM5.53538 8.07996L4.29757 6.84187C4.11019 6.65444 4.11019 6.34556 4.29757 6.15813C4.48496 5.9707 4.79381 5.9707 4.9812 6.15813L5.87724 7.05438L8.00601 4.92511C8.1934 4.73768 8.50225 4.73768 8.68964 4.92511C8.87702 5.11253 8.87702 5.42142 8.68964 5.60884L6.2191 8.07996L6.21906 8.08001L6.14834 8.0093M5.53538 8.07996L5.87724 8.12186C5.97895 8.12177 6.07646 8.08128 6.14834 8.0093M6.14834 8.0093L8.61893 5.53814C8.76726 5.38977 8.76726 5.14419 8.61893 4.99581C8.47059 4.84744 8.22506 4.84744 8.07673 4.99581L5.94794 7.12509L6.14834 8.0093ZM5.53578 11.7535L5.53594 11.7536C5.80629 11.9854 6.15221 12.1 6.49616 12.1C6.84005 12.1 7.18629 11.9854 7.45691 11.748C7.45703 11.7479 7.45715 11.7478 7.45727 11.7477L8.26352 11.0536C8.29219 11.0306 8.35123 10.9998 8.42133 10.974C8.49256 10.9478 8.55737 10.9335 8.59335 10.9335H9.46292C10.2752 10.9335 10.9338 10.2747 10.9338 9.46233V8.59256C10.9338 8.55667 10.9481 8.49192 10.9747 8.42118C11.0013 8.35049 11.0333 8.292 11.0574 8.26445L11.0579 8.26383L11.7535 7.45546L11.7537 7.4553C12.2154 6.91646 12.2154 6.07842 11.7537 5.53958L11.7535 5.53942L11.0579 4.73105L11.0574 4.73044C11.0333 4.70288 11.0013 4.6444 10.9747 4.5737C10.9481 4.50296 10.9338 4.43821 10.9338 4.40233V3.53256C10.9338 2.72014 10.2752 2.0614 9.46292 2.0614H8.59335C8.55641 2.0614 8.49097 2.04777 8.42062 2.02251C8.34981 1.99709 8.29217 1.96637 8.26535 1.94289L8.26473 1.94236L7.45655 1.24654L7.45639 1.24641C6.91766 0.784531 6.07978 0.784531 5.54105 1.24641L5.54089 1.24654L4.73392 1.94131C4.70525 1.96423 4.64621 1.99508 4.57611 2.02085C4.50488 2.04703 4.44008 2.0614 4.40409 2.0614H3.51918C2.7069 2.0614 2.04834 2.72014 2.04834 3.53256V4.41256C2.04834 4.44931 2.03482 4.51334 2.00965 4.58227C1.98438 4.65147 1.95368 4.70832 1.92985 4.73555L1.92984 4.73555L1.92888 4.73668L1.23834 5.55017L1.2382 5.55033C0.787266 6.08388 0.787266 6.92123 1.2382 7.45478L1.23834 7.45495L1.92888 8.26844L1.92887 8.26844L1.92985 8.26956C1.95368 8.2968 1.98438 8.35365 2.00965 8.42284C2.03482 8.49178 2.04834 8.55581 2.04834 8.59256V9.46744C2.04834 9.85761 2.2033 10.2318 2.47913 10.5077C2.75496 10.7836 3.12908 10.9386 3.51918 10.9386H4.39898C4.43592 10.9386 4.50136 10.9522 4.57171 10.9775C4.64251 11.0029 4.70015 11.0336 4.72698 11.0571L4.72759 11.0576L5.53578 11.7535ZM1.97376 6.17096L1.97394 6.17076L2.66404 5.35777C2.66412 5.35769 2.66419 5.35761 2.66426 5.35752C2.8691 5.11925 3.0156 4.72275 3.0156 4.40744V3.53256C3.0156 3.25521 3.24195 3.02884 3.51918 3.02884H4.40409C4.71932 3.02884 5.1206 2.88231 5.3636 2.67792L5.36361 2.67793L5.36475 2.67694L6.17235 1.97651C6.17244 1.97644 6.17254 1.97636 6.17263 1.97628C6.25604 1.9052 6.37594 1.86616 6.50128 1.86616C6.62668 1.86616 6.74663 1.90523 6.83005 1.97638C6.8301 1.97643 6.83015 1.97647 6.83021 1.97651L7.63795 2.67195C7.63798 2.67197 7.638 2.672 7.63803 2.67202C7.88136 2.88218 8.27795 3.02884 8.59847 3.02884H9.46803C9.74526 3.02884 9.97161 3.25521 9.97161 3.53256V4.39721C9.97161 4.71781 10.1183 5.11453 10.3284 5.35791L11.0237 6.16585C11.0237 6.16587 11.0237 6.16589 11.0237 6.16592C11.0949 6.24936 11.134 6.36939 11.134 6.49488C11.134 6.62037 11.0949 6.74041 11.0237 6.82385C11.0237 6.82387 11.0237 6.8239 11.0237 6.82392L10.3284 7.63186C10.1183 7.87524 9.97161 8.27196 9.97161 8.59256V9.46233C9.97161 9.73968 9.74526 9.96605 9.46803 9.96605H8.59847C8.27695 9.96605 7.88103 10.1185 7.63896 10.3221L7.63895 10.3221L7.63808 10.3228L6.83021 11.0184C6.83014 11.0184 6.83007 11.0185 6.83 11.0185C6.74659 11.0897 6.62665 11.1287 6.50128 11.1287C6.3759 11.1287 6.25597 11.0897 6.17256 11.0185C6.17249 11.0185 6.17242 11.0184 6.17235 11.0184L5.3646 10.3229L5.29923 10.3986L5.36448 10.3228L5.36453 10.3229C5.1212 10.1127 4.72461 9.96605 4.40409 9.96605H3.51918C3.24195 9.96605 3.0156 9.73968 3.0156 9.46233V8.58744C3.0156 8.27142 2.86863 7.88045 2.66478 7.63797L2.66447 7.63761L1.97394 6.82412L1.97376 6.82392C1.90236 6.74026 1.86343 6.62136 1.86343 6.49744C1.86343 6.37353 1.90236 6.25462 1.97376 6.17096Z" fill="#F8CE46" stroke="#F8CE46" stroke-width="0.2"/>
</svg>
