<svg width="23" height="25" viewBox="0 0 23 25" fill="none" xmlns="http://www.w3.org/2000/svg">
<path d="M16.125 3C12.2695 3 9.25 4.81225 9.25 7.125V9.49642C8.80633 9.44417 8.34708 9.41667 7.875 9.41667C4.0195 9.41667 1 11.2289 1 13.5417V20.875C1 23.1877 4.0195 25 7.875 25C11.0063 25 13.5868 23.8047 14.4447 22.1162C14.992 22.1959 15.5512 22.25 16.125 22.25C19.9805 22.25 23 20.4377 23 18.125V7.125C23 4.81225 19.9805 3 16.125 3ZM16.125 4.83333C19.0107 4.83333 21.1667 6.04333 21.1667 7.125C21.1667 8.20667 19.0107 9.41667 16.125 9.41667C13.2393 9.41667 11.0833 8.20667 11.0833 7.125C11.0833 6.04333 13.2393 4.83333 16.125 4.83333ZM7.875 11.25C10.7607 11.25 12.9167 12.46 12.9167 13.5417C12.9167 14.6233 10.7607 15.8333 7.875 15.8333C4.98933 15.8333 2.83333 14.6233 2.83333 13.5417C2.83333 12.46 4.98933 11.25 7.875 11.25ZM2.83333 16.3668C4.08 17.1689 5.86108 17.6667 7.875 17.6667C9.88892 17.6667 11.67 17.1689 12.9167 16.3668V17.2083C12.9167 18.29 10.7607 19.5 7.875 19.5C4.98933 19.5 2.83333 18.29 2.83333 17.2083V16.3668ZM7.875 23.1667C4.98933 23.1667 2.83333 21.9567 2.83333 20.875V20.0335C4.08 20.8356 5.86108 21.3333 7.875 21.3333C9.88892 21.3333 11.67 20.8356 12.9167 20.0335V20.875C12.9167 21.9567 10.7607 23.1667 7.875 23.1667ZM16.125 20.4167C15.6538 20.4167 15.1973 20.3736 14.75 20.3103V18.4953C15.201 18.5485 15.6575 18.5833 16.125 18.5833C18.1389 18.5833 19.92 18.0856 21.1667 17.2835V18.125C21.1667 19.2067 19.0107 20.4167 16.125 20.4167ZM16.125 16.75C15.6538 16.75 15.1973 16.7069 14.75 16.6437V14.8287C15.201 14.8818 15.6575 14.9167 16.125 14.9167C18.1389 14.9167 19.92 14.4189 21.1667 13.6168V14.4583C21.1667 15.54 19.0107 16.75 16.125 16.75ZM16.125 13.0833C15.6282 13.0833 15.1478 13.0366 14.6785 12.9669C14.497 12.1538 13.9369 11.4233 13.1009 10.8393C14.0103 11.1006 15.0314 11.2509 16.125 11.2509C18.1389 11.2509 19.92 10.7532 21.1667 9.95108V10.7926C21.1667 11.8743 19.0107 13.0843 16.125 13.0843V13.0833Z" fill="#5E616A"/>
<circle cx="7.5" cy="7.5" r="6.75" fill="#393A3E" stroke="#5E616A" stroke-width="1.5"/>
<path d="M9.94653 5.05495L9.94656 5.05492C10.2218 4.78187 10.6678 4.78151 10.943 5.05495C10.943 5.05497 10.9431 5.055 10.9431 5.05502L10.8373 5.16141C11.0542 5.37667 11.0542 5.72578 10.8373 5.94091L9.94653 5.05495ZM9.94653 5.05495L6.51851 8.45794L5.05361 7.00381C4.77825 6.73047 4.33234 6.73047 4.05698 7.00381C3.78101 7.27776 3.78101 7.7223 4.05698 7.99624L6.02011 9.94496C6.15777 10.0816 6.33837 10.15 6.51836 10.15C6.69819 10.15 6.87898 10.0819 7.01674 9.94496C7.01677 9.94494 7.01679 9.94492 7.01681 9.9449L10.943 6.0474L9.94653 5.05495Z" fill="#5E616A" stroke="#5E616A" stroke-width="0.3"/>
</svg>
