<svg width="27" height="27" viewBox="0 0 27 27" fill="none" xmlns="http://www.w3.org/2000/svg">
<path d="M22.5047 8.61433C22.5083 7.46804 22.2814 6.33273 21.8374 5.2759C21.3935 4.21908 20.7416 3.26231 19.9204 2.46249L19.3461 3.04837C20.0891 3.77201 20.6789 4.63766 21.0806 5.59384C21.4823 6.55002 21.6876 7.57721 21.6843 8.61433C21.6843 12.9119 18.188 16.4082 13.8904 16.4082C9.59285 16.4082 6.09653 12.9119 6.09653 8.61433C6.09653 4.31677 9.59285 0.820446 13.8904 0.820446C15.5777 0.815458 17.2203 1.36292 18.5672 2.37922L19.06 1.7229C17.5711 0.599559 15.7555 -0.00553604 13.8904 3.81699e-05C9.14045 3.81699e-05 5.27612 3.86437 5.27612 8.61433C5.27612 13.3643 9.14045 17.2286 13.8904 17.2286C18.6404 17.2286 22.5047 13.3643 22.5047 8.61433Z" fill="white"/>
<path d="M9.17737 4.65844C8.34083 5.64945 7.84185 6.88125 7.75283 8.17507L8.57119 8.23281C8.64837 7.1119 9.0807 6.04474 9.80544 5.18617L9.17737 4.65844ZM7.75283 9.05322C7.84184 10.347 8.3408 11.5788 9.17732 12.5698L9.80544 12.0421C9.0807 11.1835 8.64837 10.1164 8.57119 8.99548L7.75283 9.05322ZM13.4514 14.7518L13.5092 13.9334C12.3883 13.8563 11.3211 13.424 10.4625 12.6993L9.93481 13.3274C10.9259 14.1639 12.1576 14.6628 13.4514 14.7518ZM17.8462 13.3273L17.3185 12.6992C16.4599 13.4239 15.3927 13.8562 14.2718 13.9334L14.3296 14.7518C15.6234 14.6628 16.8552 14.1638 17.8462 13.3273ZM17.9755 12.0421L18.6037 12.5698C19.4402 11.5788 19.9392 10.347 20.0282 9.05322L19.2098 8.99548C19.1326 10.1164 18.7003 11.1835 17.9755 12.0421ZM18.6037 4.65844L17.9755 5.18617C18.7003 6.04475 19.1326 7.1119 19.2098 8.23281L20.0281 8.17507C19.9392 6.88126 19.4402 5.64947 18.6037 4.65844ZM14.3296 2.47646L14.2718 3.29487C15.3928 3.37206 16.4599 3.80436 17.3185 4.52907L17.8462 3.9009C16.8551 3.06448 15.6234 2.56555 14.3296 2.47646ZM9.93481 3.9009L10.4625 4.52913C11.3211 3.80441 12.3883 3.37211 13.5092 3.29492L13.4514 2.47646C12.1577 2.56555 10.9259 3.06448 9.93481 3.9009ZM13.4803 1.23047H14.3007V2.05088H13.4803V1.23047ZM13.4803 15.1774H14.3007V15.9978H13.4803V15.1774ZM6.50684 8.20394H7.32725V9.02435H6.50684V8.20394ZM20.4538 8.20394H21.2742V9.02435H20.4538V8.20394ZM8.99647 17.0313L7.42467 15.9504C7.09102 15.7209 6.69688 15.5952 6.29192 15.5893C5.88696 15.5834 5.48931 15.6975 5.14911 15.9173L4.35378 9.85255C4.30601 9.47947 4.18401 9.11974 3.99498 8.79457C3.80595 8.4694 3.55371 8.18538 3.25315 7.95925C2.95398 7.73124 2.61216 7.56546 2.24788 7.4717C1.88359 7.37793 1.50422 7.35808 1.13214 7.41332C1.02547 7.42884 0.929199 7.48573 0.864143 7.57167C0.799086 7.65762 0.770473 7.76572 0.784491 7.8726L0.886324 8.65004L1.99741 18.097C2.00603 18.1706 2.03437 18.2405 2.07945 18.2992L6.09663 23.521V25.8427C6.09663 25.9515 6.13985 26.0558 6.21678 26.1328C6.29371 26.2097 6.39805 26.2529 6.50684 26.2529H10.6089C10.7177 26.2529 10.822 26.2097 10.8989 26.1328C10.9759 26.0558 11.0191 25.9515 11.0191 25.8427V22.9713H10.1987V25.4325H6.91704V23.3815C6.91705 23.291 6.88714 23.2031 6.83198 23.1314L2.799 17.8884L1.70084 8.55118L1.70012 8.54579L1.65566 8.20666C2.05551 8.22882 2.43953 8.37039 2.75809 8.61307C2.97174 8.77382 3.15105 8.97574 3.28542 9.2069C3.4198 9.43806 3.50653 9.69378 3.5405 9.959L4.44238 16.8375C4.45199 16.9144 4.48325 16.9871 4.53253 17.047L4.53304 17.0476L4.53355 17.0482L6.60108 19.5411C6.67053 19.6249 6.77041 19.6776 6.87873 19.6877C6.98706 19.6978 7.09496 19.6644 7.1787 19.595C7.26244 19.5255 7.31517 19.4257 7.32528 19.3174C7.33538 19.209 7.30204 19.1011 7.23259 19.0174L5.37955 16.7831C5.58203 16.5746 5.8518 16.4444 6.14105 16.4158C6.43031 16.3871 6.72037 16.4617 6.95986 16.6265L8.53161 17.7073C9.49866 18.3723 10.1987 19.8431 10.1987 20.5101V22.1509H11.0191V20.5101C11.0191 19.5245 10.1541 17.8274 8.99647 17.0313ZM26.6489 7.41332C26.2768 7.35928 25.8977 7.37971 25.5336 7.47342C25.1695 7.56713 24.8277 7.73225 24.528 7.9592C24.2282 8.18614 23.9766 8.47039 23.7876 8.79541C23.5986 9.12044 23.4762 9.47978 23.4272 9.85255L22.6319 15.9173C22.2917 15.6975 21.894 15.5834 21.4891 15.5893C21.0841 15.5952 20.69 15.7209 20.3563 15.9504L18.7846 17.0313C17.6269 17.8274 16.7619 19.5245 16.7619 20.5101V25.8427C16.7619 25.9515 16.8052 26.0558 16.8821 26.1328C16.959 26.2097 17.0634 26.2529 17.1721 26.2529H21.2742C21.383 26.2529 21.4873 26.2097 21.5642 26.1328C21.6412 26.0558 21.6844 25.9515 21.6844 25.8427V23.521L25.7014 18.299C25.7465 18.2402 25.7748 18.1703 25.7834 18.0968L26.2177 14.4049L25.4028 14.3091L24.9818 17.8884L20.9488 23.1314C20.8938 23.2031 20.8639 23.291 20.864 23.3815V25.4325H17.5823V20.5101C17.5823 19.8431 18.2824 18.3723 19.2494 17.7073L20.8212 16.6265C21.0607 16.4617 21.3507 16.3871 21.64 16.4158C21.9292 16.4444 22.199 16.5746 22.4015 16.7831L20.5483 19.0175C20.4788 19.1013 20.4455 19.2092 20.4556 19.3175C20.4657 19.4258 20.5184 19.5257 20.6022 19.5952C20.6859 19.6646 20.7938 19.6979 20.9021 19.6878C21.0105 19.6777 21.1103 19.625 21.1798 19.5413L23.2473 17.0484L23.2478 17.0478L23.2483 17.0471C23.2976 16.9872 23.3289 16.9146 23.3385 16.8376L24.2405 9.95936C24.3018 9.49364 24.5235 9.06385 24.8675 8.744C25.2115 8.42415 25.6563 8.23426 26.1252 8.20702L26.0808 8.54615L26.08 8.55154L25.4994 13.4888L26.3142 13.5847L26.8945 8.64993L26.9965 7.87275C27.0105 7.76586 26.982 7.65773 26.9169 7.57175C26.8519 7.48577 26.7556 7.42886 26.6489 7.41332Z" fill="white"/>
<path fill-rule="evenodd" clip-rule="evenodd" d="M12.5394 5.5689L11.9161 5.91655L12.0218 6.50925C11.9687 6.55489 11.9177 6.60202 11.8686 6.65063L12.4655 7.24757C12.5721 7.14164 12.6896 7.04738 12.8161 6.96639L13.1642 6.74473V8.83884L13.5526 9.06317L13.9411 9.2875L14.3295 9.06317L14.718 8.83884V6.74473L15.0661 6.96639C15.1839 7.04137 15.294 7.12787 15.3948 7.22461L15.9919 6.62744C15.9518 6.58819 15.9106 6.55036 15.8684 6.51394L15.9852 5.93885L15.3727 5.57292L14.9126 5.9607C14.7775 5.91359 14.6391 5.87633 14.4986 5.84921L14.3121 5.29173L13.5986 5.28125L13.3943 5.84653C13.2533 5.87342 13.1146 5.91069 12.9791 5.95803L12.5394 5.5689ZM16.7526 6.70077L16.1393 6.77904L16.1396 6.77926L15.5375 7.37576C15.731 7.60608 15.8727 7.8753 15.9531 8.16519C16.0335 8.45507 16.0506 8.75885 16.0033 9.05592C15.956 9.35301 15.8454 9.63645 15.6789 9.88703C15.5125 10.1376 15.2941 10.3495 15.0387 10.5083V11.6355L15.3328 11.8958L15.956 11.5481L15.8504 10.9563C15.9592 10.8629 16.061 10.7616 16.155 10.6533L16.7303 10.7703L17.0962 10.1576L16.7082 9.69731C16.7553 9.56215 16.7926 9.42377 16.8197 9.28322L17.3772 9.09657L17.3879 8.383L16.8226 8.17874C16.7957 8.03788 16.7584 7.89916 16.7111 7.76376L17.1002 7.3238L16.7526 6.70077ZM11.9018 8.1872C11.9784 7.89894 12.1154 7.6303 12.3039 7.39918L11.7007 6.79665L11.1294 6.68047L10.7637 7.29325L11.1515 7.7535C11.1043 7.88866 11.0671 8.02704 11.04 8.1676L10.4825 8.35424L10.472 9.06781L11.0373 9.27207C11.0642 9.41302 11.1015 9.55181 11.1488 9.68727L10.7597 10.1272L11.1073 10.7505L11.6994 10.6448C11.7928 10.7536 11.8941 10.8553 12.0024 10.9492L11.8856 11.5243L12.4984 11.8902L12.8224 11.6173V10.5081C12.5691 10.3506 12.3522 10.141 12.1863 9.8932C12.0204 9.64537 11.9092 9.36503 11.8602 9.07086C11.8111 8.77669 11.8253 8.47543 11.9018 8.1872Z" fill="white"/>
</svg>
