<svg width="17" height="24" viewBox="0 0 17 24" fill="none" xmlns="http://www.w3.org/2000/svg">
<path d="M2.09815e-06 -1.48619e-06L17 0L17 3C16.9435 4.72937 16.5402 6.42624 15.8169 7.97794C15.0936 9.52964 14.0669 10.9007 12.8048 12C14.0669 13.0993 15.0936 14.4704 15.8169 16.0221C16.5402 17.5738 16.9435 19.2706 17 21C17 21.7956 16.7015 22.5587 16.1701 23.1213C15.6388 23.6839 14.9181 24 14.1667 24L2.83333 24C2.08189 24 1.36122 23.6839 0.829865 23.1213C0.298512 22.5587 1.9271e-07 21.7956 2.62268e-07 21C0.0557579 19.2722 0.457095 17.5766 1.1775 16.0252C1.89791 14.4738 2.92099 13.1018 4.17917 12C2.92099 10.8982 1.89791 9.52624 1.1775 7.97482C0.457096 6.42339 0.0557592 4.72779 1.83588e-06 3L2.09815e-06 -1.48619e-06ZM15.1111 2L1.88889 2L1.88889 3C1.88889 6.774 4.25 9.552 6.22578 11.217L7.15511 12L6.22578 12.783C4.25 14.448 1.88889 17.226 1.88889 21C1.88889 21.2652 1.98839 21.5196 2.16551 21.7071C2.34263 21.8946 2.58285 22 2.83333 22L14.1667 22C14.4171 22 14.6574 21.8946 14.8345 21.7071C15.0116 21.5196 15.1111 21.2652 15.1111 21C15.1111 17.226 12.7424 14.449 10.7553 12.784L9.82222 12L10.7582 11.216C12.7424 9.551 15.1111 6.774 15.1111 3L15.1111 2ZM8.483 8.018C7.78546 7.43919 7.1678 6.75995 6.64795 6L10.3247 6M8.48678 10.487C10.0328 9.414 12.6697 7.157 13.1467 4L3.85145 4C4.32367 7.184 6.95678 9.43 8.48678 10.487Z" fill="#5E616A"/>
</svg>
