<svg width="12" height="12" viewBox="0 0 12 12" fill="none" xmlns="http://www.w3.org/2000/svg">
<path fill-rule="evenodd" clip-rule="evenodd" d="M1.70471 10.5H4.00051C4.41477 10.5 4.75058 10.8358 4.75058 11.25C4.75058 11.6642 4.41475 12 4.00048 12H1.70471C0.763689 11.9989 0.0011017 11.2364 0 10.2955V1.70449C0.0011017 0.763594 0.763689 0.00110156 1.70471 0H4.00048C4.41475 0 4.75058 0.335789 4.75058 0.75C4.75058 1.16421 4.41475 1.5 4.00048 1.5H1.70471C1.59186 1.50026 1.50047 1.59166 1.50019 1.70449V10.2955C1.50045 10.4083 1.59186 10.4997 1.70471 10.5ZM10.0737 6.73643L3.25587 6.74993C2.84161 6.75075 2.5051 6.41564 2.50427 6.00143C2.50345 5.58722 2.8386 5.25075 3.25287 5.24993L10.0472 5.23645L8.34052 3.53046C8.04749 3.23761 8.04737 2.7627 8.34026 2.4697C8.63315 2.17671 9.10812 2.17659 9.40115 2.46945L11.3409 4.40897C12.2197 5.28764 12.2197 6.71227 11.3409 7.59094L9.40115 9.53044C9.10812 9.82329 8.63315 9.82317 8.34026 9.53018C8.04737 9.23719 8.04749 8.76227 8.34052 8.46942L10.0737 6.73643Z" fill="white"/>
</svg>
