<svg width="20" height="18" viewBox="0 0 20 18" fill="none" xmlns="http://www.w3.org/2000/svg">
<path fill-rule="evenodd" clip-rule="evenodd" d="M0 3.95038C0 3.54758 0.344615 3.22067 0.769231 3.22067H12.5126C12.7166 3.22067 12.9123 3.29755 13.0565 3.43439C13.2008 3.57124 13.2818 3.75685 13.2818 3.95038C13.2818 4.14391 13.2008 4.32952 13.0565 4.46637C12.9123 4.60321 12.7166 4.68009 12.5126 4.68009H0.769231C0.344615 4.68009 0 4.35318 0 3.95038Z" fill="#8F9198"/>
<path fill-rule="evenodd" clip-rule="evenodd" d="M15.8769 1.45943C14.4585 1.45943 13.2923 2.56626 13.2923 3.95038C13.2923 5.3345 14.4585 6.44133 15.8769 6.44133C17.2954 6.44133 18.4615 5.3345 18.4615 3.95038C18.4615 2.56684 17.2954 1.45943 15.8769 1.45943ZM11.7538 3.95038C11.7538 1.777 13.5908 0 15.8769 0C18.1631 0 20 1.777 20 3.95038C20 6.12376 18.1631 7.90076 15.8769 7.90076C13.5908 7.90076 11.7538 6.12376 11.7538 3.95038ZM6.71815 14.0496C6.71815 13.6468 7.06277 13.3199 7.48738 13.3199H19.2308C19.4348 13.3199 19.6304 13.3968 19.7747 13.5336C19.919 13.6705 20 13.8561 20 14.0496C20 14.2432 19.919 14.4288 19.7747 14.5656C19.6304 14.7025 19.4348 14.7793 19.2308 14.7793H7.48738C7.06277 14.7793 6.71815 14.4524 6.71815 14.0496Z" fill="#8F9198"/>
<path fill-rule="evenodd" clip-rule="evenodd" d="M4.12308 11.5587C2.70462 11.5587 1.53846 12.6655 1.53846 14.0496C1.53846 15.4337 2.70462 16.5406 4.12308 16.5406C5.54154 16.5406 6.70769 15.4337 6.70769 14.0496C6.70769 12.6655 5.54154 11.5587 4.12308 11.5587ZM0 14.0496C0 11.8762 1.83692 10.0992 4.12308 10.0992C6.40923 10.0992 8.24615 11.8762 8.24615 14.0496C8.24615 16.223 6.40923 18 4.12308 18C1.83692 18 0 16.223 0 14.0496Z" fill="#8F9198"/>
</svg>
