<svg width="11" height="11" viewBox="0 0 11 11" fill="none" xmlns="http://www.w3.org/2000/svg">
<path d="M9.76071 8.80527L9.70616 8.875L9.76876 8.9376L10.4989 9.66772C10.6091 9.77794 10.671 9.92743 10.671 10.0833C10.671 10.2392 10.6091 10.3887 10.4989 10.4989C10.3887 10.6091 10.2392 10.671 10.0833 10.671C9.92743 10.671 9.77794 10.6091 9.66772 10.4989L8.9376 9.76876L8.875 9.70616L8.80527 9.76071C7.86166 10.4989 6.69807 10.9 5.5 10.9C4.30193 10.9 3.13834 10.4989 2.19473 9.76071L2.125 9.70616L2.0624 9.76876L1.33228 10.4989C1.22206 10.6091 1.07257 10.671 0.916702 10.671C0.76083 10.671 0.611342 10.6091 0.501125 10.4989C0.390907 10.3887 0.328987 10.2392 0.328987 10.0833C0.328987 9.92743 0.390907 9.77794 0.501125 9.66772L1.23124 8.9376L1.29384 8.875L1.23929 8.80527C0.501077 7.86166 0.1 6.69807 0.1 5.5C0.1 4.30193 0.501077 3.13834 1.23929 2.19473L1.29384 2.125L1.23124 2.0624L0.501125 1.33228C0.390907 1.22206 0.328987 1.07257 0.328987 0.916702C0.328987 0.76083 0.390907 0.611343 0.501125 0.501125C0.611343 0.390907 0.76083 0.328987 0.916702 0.328987C1.07257 0.328987 1.22206 0.390907 1.33228 0.501125L2.0624 1.23124L2.125 1.29384L2.19473 1.23929C3.13834 0.501077 4.30193 0.1 5.5 0.1C6.69807 0.1 7.86166 0.501077 8.80527 1.23929L8.875 1.29384L8.9376 1.23124L9.66772 0.501125C9.77794 0.390907 9.92743 0.328987 10.0833 0.328987C10.1605 0.328987 10.2369 0.344189 10.3082 0.373724C10.3795 0.40326 10.4443 0.44655 10.4989 0.501125C10.6091 0.611342 10.671 0.76083 10.671 0.916702C10.671 1.07257 10.6091 1.22206 10.4989 1.33228L9.76876 2.0624L9.70616 2.125L9.76071 2.19473C10.4989 3.13834 10.9 4.30193 10.9 5.5C10.9 6.69807 10.4989 7.86166 9.76071 8.80527ZM8.78794 7.95679L8.87131 8.04012L8.93994 7.94429C9.45042 7.23148 9.72493 6.37675 9.72497 5.5C9.72493 4.62325 9.45042 3.76852 8.93994 3.05571L8.87131 2.95988L8.78794 3.04321L7.56054 4.27016L7.50666 4.32402L7.54428 4.39027C7.73641 4.72857 7.83742 5.11095 7.83742 5.5C7.83742 5.88905 7.73641 6.27143 7.54428 6.60973L7.50666 6.67598L7.56054 6.72984L8.78794 7.95679ZM4.33759 5.5V5.50013C4.33799 5.80826 4.46057 6.10366 4.67846 6.32155C4.89634 6.53943 5.19174 6.66201 5.49987 6.66241H5.5C5.7299 6.66241 5.95464 6.59424 6.1458 6.46651C6.33696 6.33878 6.48595 6.15724 6.57393 5.94484C6.66191 5.73243 6.68493 5.49871 6.64007 5.27323C6.59522 5.04774 6.48451 4.84062 6.32195 4.67805C6.15938 4.51549 5.95226 4.40478 5.72678 4.35993C5.50129 4.31508 5.26757 4.3381 5.05517 4.42607C4.84276 4.51406 4.66122 4.66304 4.53349 4.8542C4.40577 5.04536 4.33759 5.2701 4.33759 5.5ZM7.95679 2.21206L8.04012 2.12869L7.94429 2.06006C7.23148 1.54958 6.37675 1.27507 5.5 1.27503H5.5C4.62325 1.27507 3.76852 1.54958 3.05571 2.06006L2.95988 2.12869L3.04321 2.21206L4.27016 3.43946L4.32402 3.49335L4.39027 3.45572C4.72857 3.26359 5.11095 3.16258 5.5 3.16258C5.88905 3.16258 6.27143 3.26359 6.60973 3.45572L6.67598 3.49335L6.72984 3.43946L7.95679 2.21206ZM1.27503 5.5V5.5C1.27507 6.37675 1.54958 7.23148 2.06006 7.94429L2.12869 8.04012L2.21206 7.95679L3.43946 6.72984L3.49335 6.67598L3.45572 6.60973C3.26359 6.27143 3.16258 5.88905 3.16258 5.5C3.16258 5.11095 3.26359 4.72857 3.45572 4.39027L3.49335 4.32402L3.43946 4.27016L2.21206 3.04321L2.12869 2.95988L2.06006 3.05571C1.54958 3.76852 1.27507 4.62325 1.27503 5.5ZM3.04321 8.78794L2.95988 8.87131L3.05571 8.93994C3.76852 9.45042 4.62325 9.72493 5.5 9.72497C6.37675 9.72493 7.23148 9.45042 7.94429 8.93994L8.04012 8.87131L7.95679 8.78794L6.72984 7.56054L6.67598 7.50666L6.60973 7.54428C6.27143 7.73641 5.88905 7.83742 5.5 7.83742C5.11095 7.83742 4.72857 7.73641 4.39027 7.54428L4.32402 7.50666L4.27016 7.56054L3.04321 8.78794Z" fill="#F8CE46" stroke="#4B442C" stroke-width="0.2"/>
</svg>
