<svg width="11" height="11" viewBox="0 0 11 11" fill="none" xmlns="http://www.w3.org/2000/svg">
<path d="M5.5 3.20833C4.23637 3.20833 3.20833 4.23637 3.20833 5.5C3.20833 6.76363 4.23637 7.79167 5.5 7.79167C6.76363 7.79167 7.79167 6.76363 7.79167 5.5C7.79167 4.23637 6.76363 3.20833 5.5 3.20833ZM5.5 6.875C4.74192 6.875 4.125 6.25808 4.125 5.5C4.125 4.74192 4.74192 4.125 5.5 4.125C6.25808 4.125 6.875 4.74192 6.875 5.5C6.875 6.25808 6.25808 6.875 5.5 6.875ZM11 5.04167H10.0604C9.84454 2.87971 8.12029 1.155 5.95833 0.939583V0H5.04167V0.939583C2.87971 1.155 1.155 2.87971 0.939583 5.04167H0V5.95833H0.939583C1.15546 8.12029 2.87971 9.845 5.04167 10.0604V11H5.95833V10.0604C8.12029 9.84454 9.845 8.12029 10.0604 5.95833H11V5.04167ZM5.5 9.16667C3.47829 9.16667 1.83333 7.52171 1.83333 5.5C1.83333 3.47829 3.47829 1.83333 5.5 1.83333C7.52171 1.83333 9.16667 3.47829 9.16667 5.5C9.16667 7.52171 7.52171 9.16667 5.5 9.16667Z" fill="#F8CE46"/>
</svg>
