<svg width="22" height="22" viewBox="0 0 22 22" fill="none" xmlns="http://www.w3.org/2000/svg">
<path d="M11 6.41667C8.47275 6.41667 6.41667 8.47275 6.41667 11C6.41667 13.5273 8.47275 15.5833 11 15.5833C13.5273 15.5833 15.5833 13.5273 15.5833 11C15.5833 8.47275 13.5273 6.41667 11 6.41667ZM11 13.75C9.48383 13.75 8.25 12.5162 8.25 11C8.25 9.48383 9.48383 8.25 11 8.25C12.5162 8.25 13.75 9.48383 13.75 11C13.75 12.5162 12.5162 13.75 11 13.75ZM22 10.0833H20.1208C19.6891 5.75942 16.2406 2.31 11.9167 1.87917V0H10.0833V1.87917C5.75942 2.31 2.31 5.75942 1.87917 10.0833H0V11.9167H1.87917C2.31092 16.2406 5.75942 19.69 10.0833 20.1208V22H11.9167V20.1208C16.2406 19.6891 19.69 16.2406 20.1208 11.9167H22V10.0833ZM11 18.3333C6.95658 18.3333 3.66667 15.0434 3.66667 11C3.66667 6.95658 6.95658 3.66667 11 3.66667C15.0434 3.66667 18.3333 6.95658 18.3333 11C18.3333 15.0434 15.0434 18.3333 11 18.3333Z" fill="#5E616A"/>
</svg>
