<svg width="26" height="26" viewBox="0 0 26 26" fill="none" xmlns="http://www.w3.org/2000/svg">
<path fill-rule="evenodd" clip-rule="evenodd" d="M7.81282 5.39138L6.96481 5.86439L7.10862 6.67083C7.03642 6.73292 6.96693 6.79704 6.90018 6.86318L7.71239 7.67539C7.85731 7.53125 8.01719 7.403 8.18935 7.29281L8.66296 6.99122V9.84047L9.19148 10.1457L9.72001 10.4509L10.2485 10.1457L10.7771 9.84047V6.99122L11.2507 7.29281C11.411 7.39483 11.5608 7.51251 11.6979 7.64414L12.5104 6.83163C12.4558 6.77823 12.3997 6.72675 12.3423 6.6772L12.5013 5.89473L11.6678 5.39685L11.0419 5.92446C10.858 5.86037 10.6697 5.80967 10.4785 5.77276L10.2249 5.01426L9.25398 5L8.97607 5.76912C8.78426 5.80572 8.59545 5.85642 8.41114 5.92083L7.81282 5.39138ZM13.5453 6.93188L12.711 7.03837L12.7113 7.03868L11.8921 7.85027C12.1554 8.16365 12.3482 8.52995 12.4576 8.92437C12.5669 9.31879 12.5902 9.73212 12.5258 10.1363C12.4614 10.5405 12.311 10.9262 12.0845 11.2671C11.8581 11.6081 11.561 11.8964 11.2134 12.1125V13.6461L11.6136 14.0002L12.4616 13.5272L12.3177 12.722C12.4658 12.5949 12.6044 12.4571 12.7322 12.3097L13.515 12.4689L14.0129 11.6352L13.4849 11.009C13.549 10.8251 13.5997 10.6368 13.6366 10.4456L14.3951 10.1916L14.4097 9.22074L13.6406 8.94282C13.6039 8.75116 13.5532 8.56241 13.4889 8.37819L14.0183 7.77958L13.5453 6.93188ZM6.94538 8.95432C7.04949 8.56211 7.23598 8.1966 7.49244 7.88213L6.67174 7.06234L5.89443 6.90427L5.39685 7.73802L5.92446 8.36423C5.8603 8.54812 5.8096 8.73642 5.77276 8.92765L5.01426 9.1816L5 10.1525L5.76912 10.4304C5.80573 10.6222 5.85643 10.811 5.92082 10.9953L5.39139 11.5939L5.86439 12.4419L6.66992 12.2981C6.79699 12.4461 6.9348 12.5845 7.08224 12.7123L6.92326 13.4948L7.757 13.9926L8.19786 13.6213V12.1122C7.85322 11.8979 7.55821 11.6127 7.33247 11.2755C7.10673 10.9383 6.95545 10.5569 6.8887 10.1566C6.82196 9.75639 6.84128 9.3465 6.94538 8.95432Z" fill="white"/>
<path d="M25.6578 22.7082L20.88 17.9303C20.4654 17.5158 19.815 17.4797 19.3578 17.8196L17.2496 15.7114C20.2802 11.9136 20.0387 6.34637 16.5238 2.83132C12.7488 -0.943775 6.60631 -0.943775 2.83127 2.83132C-0.943758 6.60647 -0.943758 12.749 2.83127 16.5241C4.65996 18.3529 7.09137 19.36 9.67751 19.36C11.8975 19.36 14.003 18.6172 15.7115 17.2504L17.8193 19.3581C17.4793 19.8153 17.5154 20.4658 17.9299 20.8804L22.7077 25.6583C22.9355 25.8861 23.2348 26 23.534 26C23.8332 26 24.1324 25.8861 24.3602 25.6583L25.6578 24.3607C25.7666 24.2524 25.8529 24.1237 25.9116 23.9819C25.9704 23.84 26.0004 23.688 26 23.5345C26.0004 23.381 25.9704 23.2289 25.9117 23.0871C25.853 22.9452 25.7667 22.8165 25.6578 22.7082ZM15.499 16.436C15.4913 16.4422 15.4838 16.4488 15.4765 16.4556C11.9759 19.4551 6.68344 19.2983 3.37027 15.9851C-0.107543 12.5072 -0.107543 6.84835 3.37027 3.37043C5.05499 1.68568 7.29495 0.757785 9.67751 0.757785C12.0601 0.757785 14.3 1.68563 15.9848 3.37038C19.4626 6.8483 19.4626 12.5072 15.9848 15.985C15.8284 16.1413 15.6664 16.2917 15.499 16.436ZM16.2893 16.7501C16.3687 16.676 16.4469 16.6007 16.5238 16.5241C16.6004 16.4472 16.6757 16.369 16.7497 16.2896L18.809 18.3489L18.3486 18.8093L16.2893 16.7501ZM25.1188 23.8216L23.8212 25.1193C23.6628 25.2777 23.4052 25.2777 23.2467 25.1193L18.469 20.3414C18.3106 20.183 18.3106 19.9253 18.469 19.767L19.7666 18.4694C19.8043 18.4316 19.8491 18.4017 19.8983 18.3813C19.9476 18.3609 20.0005 18.3505 20.0538 18.3506C20.1578 18.3506 20.2618 18.3902 20.341 18.4694L25.1188 23.2473C25.2772 23.4056 25.2772 23.6633 25.1188 23.8216Z" fill="white"/>
<path d="M17.7295 8.74379C17.5182 6.91177 16.7158 5.25277 15.4091 3.94599C13.8781 2.41506 11.8426 1.57182 9.67751 1.57182C7.5124 1.57182 5.47688 2.41501 3.94592 3.94599C2.63851 5.25348 1.83601 6.9134 1.62516 8.74638C1.61901 8.79632 1.6228 8.84698 1.63632 8.89544C1.64984 8.9439 1.67282 8.98921 1.70394 9.02875C1.73505 9.06828 1.77369 9.10127 1.81761 9.1258C1.86154 9.15034 1.90989 9.16593 1.95987 9.17168C2.00985 9.17744 2.06048 9.17324 2.10883 9.15933C2.15718 9.14543 2.2023 9.12208 2.24159 9.09065C2.28087 9.05922 2.31355 9.02032 2.33773 8.9762C2.36191 8.93207 2.37711 8.8836 2.38247 8.83357C2.57345 7.17325 3.30044 5.66959 4.48491 4.48509C5.8719 3.09808 7.71603 2.33416 9.67751 2.33416C11.639 2.33416 13.4831 3.09803 14.8701 4.48509C16.054 5.66893 16.7809 7.17183 16.9723 8.83114C16.9964 9.04021 17.1854 9.19052 17.3946 9.1661C17.4443 9.16037 17.4924 9.14489 17.5362 9.12057C17.5799 9.09624 17.6184 9.06354 17.6495 9.02432C17.6806 8.98511 17.7037 8.94015 17.7174 8.89202C17.7312 8.84388 17.7353 8.79352 17.7295 8.74379ZM17.3944 10.1928C17.1853 10.1682 16.9962 10.3184 16.9719 10.5276C16.7799 12.1857 16.0531 13.6874 14.8701 14.8704C13.4831 16.2574 11.639 17.0213 9.67751 17.0213C7.71603 17.0213 5.8719 16.2575 4.48491 14.8704C3.30003 13.6855 2.57295 12.1812 2.38226 10.5203C2.37669 10.4704 2.36133 10.4222 2.33707 10.3783C2.31282 10.3344 2.28014 10.2957 2.24091 10.2645C2.20169 10.2332 2.15668 10.21 2.10848 10.1962C2.06027 10.1824 2.00981 10.1783 1.95999 10.184C1.91018 10.1897 1.86198 10.2052 1.81815 10.2296C1.77433 10.2539 1.73575 10.2867 1.70463 10.326C1.6735 10.3654 1.65043 10.4104 1.63675 10.4587C1.62308 10.5069 1.61905 10.5574 1.62491 10.6072C1.83545 12.4409 2.638 14.1015 3.94587 15.4095C5.47683 16.9404 7.51234 17.7836 9.67746 17.7836C11.8426 17.7836 13.8781 16.9404 15.409 15.4095C16.7148 14.1037 17.5171 12.4459 17.7291 10.6152C17.7349 10.5655 17.7308 10.5151 17.7171 10.467C17.7034 10.4188 17.6803 10.3739 17.6493 10.3346C17.6182 10.2954 17.5797 10.2627 17.5359 10.2383C17.4922 10.214 17.4441 10.1985 17.3944 10.1928Z" fill="white"/>
</svg>
