<svg width="13" height="10" viewBox="0 0 13 10" fill="none" xmlns="http://www.w3.org/2000/svg">
<path d="M11.0218 0.844574C12.49 3.02384 13.2151 5.48199 12.944 8.31189C12.9429 8.32386 12.9367 8.33485 12.927 8.34207C11.8151 9.16627 10.7379 9.66646 9.67583 9.99818C9.66756 10.0007 9.65872 10.0006 9.65053 9.99778C9.64234 9.99498 9.63522 9.98967 9.63017 9.98259C9.3848 9.63792 9.16185 9.27454 8.96652 8.89296C8.95531 8.87048 8.96555 8.84341 8.98862 8.83455C9.34271 8.69987 9.67941 8.53844 10.0033 8.34732C10.0288 8.33223 10.0304 8.29532 10.0068 8.2776C9.93811 8.22609 9.87002 8.17195 9.80486 8.11781C9.79267 8.10781 9.77626 8.10584 9.76245 8.11256C7.65986 9.09277 5.35659 9.09277 3.22915 8.11256C3.21533 8.10633 3.19892 8.10846 3.18706 8.11831C3.12206 8.17244 3.05381 8.22609 2.98572 8.2776C2.96216 8.29532 2.96411 8.33223 2.98978 8.34732C3.31365 8.53483 3.65035 8.69987 4.00394 8.83521C4.02686 8.84407 4.03774 8.87048 4.02637 8.89296C3.83527 9.27503 3.61232 9.63841 3.3624 9.98308C3.35151 9.99703 3.33363 10.0034 3.31673 9.99818C2.25967 9.66646 1.18246 9.16627 0.0706391 8.34207C0.0613766 8.33485 0.0547141 8.32337 0.0537391 8.31139C-0.172785 5.86358 0.288876 3.38508 1.97416 0.844082C1.97822 0.837356 1.9844 0.832106 1.99155 0.828989C2.82078 0.44478 3.70917 0.162119 4.63769 0.000691564C4.65459 -0.00193327 4.67149 0.00594122 4.68027 0.021034C4.79499 0.226099 4.92613 0.489074 5.01486 0.703982C5.99359 0.553054 6.9876 0.553054 7.98681 0.703982C8.07554 0.493667 8.20213 0.226099 8.31636 0.021034C8.32043 0.0135466 8.32674 0.00754816 8.33438 0.00389496C8.34203 0.000241766 8.35062 -0.000879389 8.35894 0.000691564C9.28795 0.162611 10.1763 0.445272 11.0049 0.828989C11.0122 0.832106 11.0182 0.837356 11.0218 0.844574ZM5.51243 5.49872C5.52267 4.77509 5.00007 4.1763 4.34406 4.1763C3.69341 4.1763 3.17585 4.76984 3.17585 5.49872C3.17585 6.22744 3.70365 6.82098 4.34406 6.82098C4.99487 6.82098 5.51243 6.22744 5.51243 5.49872ZM9.832 5.49872C9.84223 4.77509 9.31964 4.1763 8.66379 4.1763C8.01297 4.1763 7.49541 4.76984 7.49541 5.49872C7.49541 6.22744 8.02321 6.82098 8.66379 6.82098C9.31964 6.82098 9.832 6.22744 9.832 5.49872Z" fill="#5E6069"/>
</svg>
