<svg width="10" height="10" viewBox="0 0 10 10" fill="none" xmlns="http://www.w3.org/2000/svg">
<path d="M4.33723 8.16769C3.67555 8.85529 2.59796 8.91872 1.86052 8.31343C1.42133 7.93238 1.19699 7.35942 1.2604 6.78074C1.31532 6.3541 1.5143 5.95913 1.82426 5.66151L3.02283 4.45958C3.26686 4.21495 3.26686 3.81842 3.02283 3.57379C2.77872 3.32924 2.38302 3.32924 2.13891 3.57379L0.965778 4.74984C0.431028 5.26659 0.0937968 5.95472 0.0126682 6.69471C-0.138864 8.3614 1.08654 9.83563 2.74971 9.98748C3.64287 10.069 4.52608 9.74907 5.16071 9.11403L6.41429 7.85823C6.65832 7.6136 6.65832 7.21706 6.41429 6.97244C6.17018 6.72789 5.77448 6.72789 5.53037 6.97244L4.33723 8.16769Z" fill="#5E6069"/>
<path d="M8.81724 0.601927C7.57273 -0.314362 5.84457 -0.170711 4.76773 0.938542L3.58791 2.12127C3.34388 2.36589 3.34388 2.76243 3.58791 3.00706C3.83202 3.2516 4.22772 3.2516 4.47183 3.00706L5.6704 1.8072C6.31763 1.13638 7.36482 1.06082 8.10127 1.6318C8.85928 2.25468 8.96991 3.3754 8.34834 4.13502C8.31197 4.17948 8.27347 4.22214 8.23295 4.26286L6.97937 5.51909C6.73534 5.76372 6.73534 6.16025 6.97937 6.40488C7.22348 6.64943 7.61918 6.64943 7.86329 6.40488L9.11687 5.14865C10.297 3.9622 10.294 2.04167 9.11005 0.859004C9.01806 0.767112 8.92025 0.681251 8.81724 0.601927Z" fill="#5E6069"/>
<path d="M3.58791 5.52021L5.53017 3.57383C5.7743 3.32918 6.1701 3.32918 6.41423 3.57383C6.65836 3.81847 6.65836 4.21511 6.41423 4.45976L4.47197 6.40613C4.22784 6.65078 3.83204 6.65078 3.58791 6.40613C3.34379 6.16149 3.34379 5.76485 3.58791 5.52021Z" fill="#5E6069"/>
</svg>
