<svg width="20" height="27" viewBox="0 0 20 27" fill="none" xmlns="http://www.w3.org/2000/svg">
<path d="M5.62683 10.4016C4.79029 11.3926 4.29131 12.6244 4.20229 13.9182L5.02065 13.976C5.09783 12.8551 5.53016 11.7879 6.2549 10.9293L5.62683 10.4016ZM4.20229 14.7964C4.29129 16.0902 4.79026 17.322 5.62678 18.313L6.2549 17.7853C5.53016 16.9267 5.09783 15.8596 5.02065 14.7386L4.20229 14.7964ZM9.9009 20.495L9.95864 19.6766C8.83774 19.5994 7.77058 19.1671 6.912 18.4424L6.38427 19.0706C7.37531 19.907 8.6071 20.406 9.9009 20.495ZM14.2957 19.0705L13.7679 18.4424C12.9094 19.1671 11.8422 19.5994 10.7213 19.6765L10.779 20.4949C12.0728 20.4059 13.3046 19.907 14.2957 19.0705ZM14.425 17.7853L15.0531 18.313C15.8897 17.322 16.3886 16.0902 16.4777 14.7964L15.6593 14.7386C15.5821 15.8596 15.1498 16.9267 14.425 17.7853ZM15.0532 10.4016L14.425 10.9293C15.1497 11.7879 15.582 12.8551 15.6592 13.976L16.4776 13.9182C16.3886 12.6244 15.8897 11.3926 15.0532 10.4016ZM10.779 8.21963L10.7213 9.03804C11.8422 9.11522 12.9094 9.54753 13.768 10.2722L14.2957 9.64401C13.3046 8.80761 12.0728 8.3087 10.779 8.21963ZM6.38427 9.64406L6.91195 10.2723C7.77055 9.54758 8.83772 9.11527 9.95864 9.03809L9.9009 8.21963C8.60711 8.30871 7.37535 8.80765 6.38427 9.64406ZM9.92977 6.97363H10.7502V7.79404H9.92977V6.97363ZM2.9563 13.9471H3.77671V14.7675H2.9563V13.9471ZM16.9032 13.9471H17.7236V14.7675H16.9032V13.9471Z" fill="white"/>
<path d="M18.3389 21.3306H15.4018C16.7738 20.3372 17.8211 18.9598 18.4117 17.3721L17.6432 17.085C16.9553 18.9335 15.5902 20.4513 13.8247 21.3306H6.85518C5.56009 20.6832 4.47094 19.6878 3.70983 18.4561C2.94873 17.2244 2.54575 15.805 2.54609 14.3571C2.54609 10.0596 6.04241 6.56327 10.34 6.56327C14.6375 6.56327 18.1338 10.0596 18.1338 14.3571C18.1342 15.0145 18.0517 15.6692 17.8883 16.3059L18.6831 16.5104C18.8636 15.8069 18.9547 15.0834 18.9543 14.3571C18.9543 9.74471 15.3104 5.96739 10.7502 5.75255V4.10204H13.8267C14.7511 4.101 15.6374 3.73331 16.291 3.07965C16.9447 2.42598 17.3124 1.53972 17.3134 0.615306V0.410204C17.3134 0.301411 17.2702 0.197074 17.1933 0.120146C17.1164 0.0432178 17.012 0 16.9032 0L13.4165 0C12.7845 0.000449488 12.1645 0.172504 11.6227 0.497799C11.0808 0.823093 10.6375 1.28942 10.34 1.847C10.0425 1.28942 9.59911 0.823093 9.05727 0.497799C8.51543 0.172504 7.89542 0.000449488 7.26344 0L3.7767 0C3.66791 0 3.56357 0.0432178 3.48664 0.120146C3.40972 0.197074 3.3665 0.301411 3.3665 0.410204V0.615306C3.36754 1.53972 3.73523 2.42598 4.38889 3.07965C5.04256 3.73331 5.92881 4.101 6.85323 4.10204H7.87874V3.28163H6.85323C6.18181 3.28082 5.53534 3.02707 5.04264 2.57094C4.54994 2.1148 4.24718 1.48978 4.1947 0.820408H7.26344C7.93486 0.821217 8.58133 1.07497 9.07403 1.5311C9.56673 1.98724 9.86949 2.61226 9.92197 3.28163H8.69915V4.10204H9.92976V5.75255C5.36952 5.96739 1.72568 9.74471 1.72568 14.3571C1.72524 15.7177 2.0472 17.059 2.66517 18.2712C3.28315 19.4833 4.17955 20.5318 5.28092 21.3306H2.34099C1.96035 21.331 1.59542 21.4824 1.32626 21.7516C1.05711 22.0208 0.905708 22.3857 0.905273 22.7663V24.8173C0.905708 25.198 1.05711 25.5629 1.32626 25.8321C1.59542 26.1012 1.96035 26.2526 2.34099 26.2531H5.82772V25.4327H2.34099C2.17785 25.4325 2.02145 25.3676 1.9061 25.2522C1.79074 25.1369 1.72586 24.9805 1.72568 24.8173V22.7663C1.72586 22.6032 1.79074 22.4468 1.9061 22.3314C2.02145 22.2161 2.17785 22.1512 2.34099 22.151H18.3389C18.5021 22.1512 18.6585 22.2161 18.7738 22.3314C18.8892 22.4468 18.9541 22.6032 18.9543 22.7663V24.8173C18.9541 24.9805 18.8892 25.1369 18.7738 25.2522C18.6585 25.3676 18.5021 25.4325 18.3389 25.4327H6.64813V26.2531H18.3389C18.7196 26.2526 19.0845 26.1012 19.3537 25.8321C19.6228 25.5629 19.7742 25.198 19.7747 24.8173V22.7663C19.7742 22.3857 19.6228 22.0208 19.3537 21.7516C19.0845 21.4824 18.7196 21.331 18.3389 21.3306ZM13.4165 0.820408H16.4852C16.4328 1.48978 16.13 2.1148 15.6373 2.57094C15.1446 3.02707 14.4981 3.28082 13.8267 3.28163H10.758C10.8104 2.61226 11.1132 1.98724 11.6059 1.5311C12.0986 1.07497 12.7451 0.821217 13.4165 0.820408Z" fill="white"/>
<path d="M2.54614 22.9717H3.36655V24.6125H2.54614V22.9717ZM5.00737 22.9717H5.82778V24.6125H5.00737V22.9717ZM7.46859 22.9717H8.289V24.6125H7.46859V22.9717ZM12.391 22.9717H13.2115V24.6125H12.391V22.9717ZM14.8523 22.9717H15.6727V24.6125H14.8523V22.9717ZM17.3135 22.9717H18.1339V24.6125H17.3135V22.9717ZM9.92982 22.9717H10.7502V24.6125H9.92982V22.9717Z" fill="white"/>
<path fill-rule="evenodd" clip-rule="evenodd" d="M8.97185 11.4141L8.3486 11.7618L8.45429 12.3545C8.40122 12.4001 8.35015 12.4472 8.3011 12.4958L8.89804 13.0928C9.00455 12.9869 9.12206 12.8926 9.24859 12.8116L9.59668 12.5899V14.6841L9.98513 14.9084L10.3736 15.1327L10.762 14.9084L11.1505 14.6841V12.5899L11.4986 12.8116C11.6164 12.8866 11.7265 12.9731 11.8272 13.0698L12.4244 12.4727C12.3843 12.4334 12.3431 12.3956 12.3009 12.3592L12.4177 11.7841L11.8052 11.4181L11.3451 11.8059C11.21 11.7588 11.0716 11.7215 10.9311 11.6944L10.7446 11.1369L10.0311 11.1265L9.8268 11.6917C9.68583 11.7186 9.54706 11.7559 9.4116 11.8032L8.97185 11.4141ZM13.1851 12.546L12.5718 12.6243L12.5721 12.6245L11.97 13.221C12.1635 13.4513 12.3052 13.7205 12.3856 14.0104C12.466 14.3003 12.4831 14.6041 12.4358 14.9011C12.3885 15.1982 12.2779 15.4817 12.1114 15.7322C11.945 15.9828 11.7266 16.1947 11.4712 16.3535V17.4808L11.7653 17.741L12.3885 17.3933L12.2828 16.8015C12.3917 16.7081 12.4935 16.6069 12.5875 16.4985L13.1628 16.6156L13.5287 16.0028L13.1407 15.5425C13.1878 15.4074 13.2251 15.269 13.2522 15.1284L13.8097 14.9418L13.8204 14.2282L13.2551 14.024C13.2281 13.8831 13.1909 13.7444 13.1436 13.609L13.5327 13.169L13.1851 12.546ZM8.33433 14.0324C8.41085 13.7442 8.54791 13.4755 8.7364 13.2444L8.13322 12.6419L7.56191 12.5257L7.19621 13.1385L7.58399 13.5987C7.53684 13.7339 7.49957 13.8723 7.4725 14.0128L6.91502 14.1995L6.90454 14.913L7.46982 15.1173C7.49672 15.2582 7.53399 15.397 7.58131 15.5325L7.1922 15.9724L7.53984 16.5957L8.13188 16.49C8.22527 16.5988 8.32656 16.7005 8.43492 16.7944L8.31807 17.3695L8.93085 17.7354L9.25486 17.4625V16.3533C9.00157 16.1959 8.78474 15.9863 8.61883 15.7384C8.45292 15.4906 8.34173 15.2102 8.29268 14.9161C8.24362 14.6219 8.25782 14.3206 8.33433 14.0324Z" fill="white"/>
</svg>
