<svg width="23" height="21" viewBox="0 0 23 21" fill="none" xmlns="http://www.w3.org/2000/svg">
<path d="M18.2083 0H4.79167C2.14667 0 0 2.13818 0 4.77273V14.3182C0 16.275 1.18833 17.955 2.875 18.69V20.0455C2.875 20.5705 3.30625 21 3.83333 21C4.36042 21 4.79167 20.5705 4.79167 20.0455V19.0909H18.2083V20.0455C18.2083 20.5705 18.6396 21 19.1667 21C19.6938 21 20.125 20.5705 20.125 20.0455V18.69C21.8117 17.955 23 16.2655 23 14.3182V4.77273C23 2.13818 20.8533 0 18.2083 0ZM21.0833 14.3182C21.0833 15.8932 19.7896 17.1818 18.2083 17.1818H4.79167C3.21042 17.1818 1.91667 15.8932 1.91667 14.3182H2.875C3.40208 14.3182 3.83333 13.8886 3.83333 13.3636C3.83333 12.8386 3.40208 12.4091 2.875 12.4091H1.91667V6.68182H2.875C3.40208 6.68182 3.83333 6.25227 3.83333 5.72727C3.83333 5.20227 3.40208 4.77273 2.875 4.77273H1.91667C1.91667 3.19773 3.21042 1.90909 4.79167 1.90909H18.2083C19.7896 1.90909 21.0833 3.19773 21.0833 4.77273V14.3182ZM12.4583 3.81818C9.28625 3.81818 6.70833 6.38591 6.70833 9.54545C6.70833 12.705 9.28625 15.2727 12.4583 15.2727C15.6304 15.2727 18.2083 12.705 18.2083 9.54545C18.2083 6.38591 15.6304 3.81818 12.4583 3.81818ZM12.4583 13.3636C10.3404 13.3636 8.625 11.655 8.625 9.54545C8.625 7.43591 10.3404 5.72727 12.4583 5.72727C14.2408 5.72727 15.7454 6.94909 16.1671 8.59091H14.4583C13.9313 8.59091 13.5 9.02046 13.5 9.54545C13.5 10.0705 13.9313 10.5 14.4583 10.5H16.1671C15.7358 12.1418 14.2408 13.3636 12.4583 13.3636Z" fill="#5E616A"/>
</svg>
