<svg width="10" height="10" viewBox="0 0 10 10" fill="none" xmlns="http://www.w3.org/2000/svg">
<path d="M2.08371 1.66667C2.08371 1.43667 2.27041 1.25 2.50045 1.25H3.33393V0.416667C3.33393 0.186667 3.52063 0 3.75067 0C3.98071 0 4.16741 0.186667 4.16741 0.416667V1.25H5.00089C5.23094 1.25 5.41764 1.43667 5.41764 1.66667C5.41764 1.89667 5.23094 2.08333 5.00089 2.08333H4.16741V2.91667C4.16741 3.14667 3.98071 3.33333 3.75067 3.33333C3.52063 3.33333 3.33393 3.14667 3.33393 2.91667V2.08333H2.50045C2.27041 2.08333 2.08371 1.89667 2.08371 1.66667ZM9.6834 5.42292L6.84748 8.605C6.05733 9.49167 4.92338 10 3.73609 10H1.66696C0.747634 10 0 9.2525 0 8.33333V6.25C0 5.33083 0.747634 4.58333 1.66696 4.58333H5.35846C5.83313 4.58333 6.24945 4.83708 6.47908 5.21583L7.81932 3.74333C8.04519 3.49542 8.35358 3.35 8.68864 3.33458C9.02328 3.31583 9.34417 3.43458 9.59213 3.66042C10.0981 4.12167 10.1389 4.91208 9.6834 5.4225V5.42292ZM9.03078 4.27667C8.94785 4.20125 8.8395 4.16542 8.72739 4.1675C8.61487 4.17292 8.51152 4.22125 8.43568 4.30458L6.59118 6.33125C6.43073 6.7775 6.03316 7.11917 5.54349 7.18917L3.39269 7.49625C3.16557 7.52917 2.95386 7.37083 2.92136 7.14292C2.88885 6.915 3.04721 6.70417 3.27475 6.67167L5.42555 6.36458C5.65851 6.33125 5.83438 6.12875 5.83438 5.89333C5.83438 5.63083 5.62101 5.4175 5.35846 5.4175H1.66696C1.2073 5.4175 0.833482 5.79125 0.833482 6.25083V8.33417C0.833482 8.79375 1.2073 9.1675 1.66696 9.1675H3.73609C4.68584 9.1675 5.5935 8.76083 6.22528 8.05167L9.0612 4.86917C9.21415 4.6975 9.2004 4.43208 9.03078 4.27708V4.27667Z" fill="#F8CE46"/>
</svg>
