<svg width="12" height="11" viewBox="0 0 12 11" fill="none" xmlns="http://www.w3.org/2000/svg">
<path fill-rule="evenodd" clip-rule="evenodd" d="M3.43787 0.478355L2.40142 1.05648L2.57719 2.04212C2.48893 2.11802 2.40401 2.19639 2.32243 2.27723L3.31512 3.26992C3.49224 3.09375 3.68766 2.937 3.89807 2.80232L4.47693 2.43371V5.91613L5.1229 6.28918L5.76888 6.66223L6.41486 6.28918L7.06083 5.91613V2.43371L7.63969 2.80232C7.83563 2.92701 8.01874 3.07085 8.18628 3.23173L9.17935 2.23866C9.1126 2.17339 9.04411 2.11048 8.97391 2.04991L9.16822 1.09356L8.14957 0.485033L7.38456 1.1299C7.15977 1.05156 6.92963 0.989595 6.69594 0.944488L6.38593 0.0174277L5.19929 0L4.85962 0.940042C4.62518 0.984763 4.39442 1.04674 4.16915 1.12545L3.43787 0.478355ZM10.4443 2.36118L9.4245 2.49134L9.42487 2.49172L8.42365 3.48367C8.74545 3.86669 8.98114 4.31439 9.11479 4.79646C9.24844 5.27853 9.27688 5.7837 9.19823 6.27771C9.11954 6.77176 8.93561 7.24312 8.65882 7.65981C8.38208 8.07654 8.01897 8.4289 7.59412 8.693V10.5675L8.08323 11.0003L9.11969 10.4222L8.94391 9.43798C9.12491 9.28268 9.29423 9.11426 9.45046 8.93404L10.4072 9.12872L11.0157 8.10969L10.3705 7.34431C10.4488 7.11956 10.5108 6.88942 10.5559 6.65569L11.4829 6.34531L11.5007 5.15868L10.5607 4.819C10.5159 4.58475 10.4539 4.35406 10.3753 4.1289L11.0224 3.39727L10.4443 2.36118ZM2.37769 4.83306C2.50493 4.35369 2.73287 3.90696 3.04632 3.52261L2.04324 2.52063L1.09319 2.32744L0.485036 3.34646L1.1299 4.11184C1.05148 4.3366 0.989516 4.56673 0.944487 4.80046L0.0174276 5.11084L0 6.29748L0.940033 6.63715C0.984777 6.87155 1.04675 7.10235 1.12545 7.32763L0.478361 8.05926L1.05648 9.09571L2.04101 8.91994C2.19632 9.10083 2.36476 9.27 2.54496 9.42612L2.35065 10.3825L3.36967 10.991L3.9085 10.5371V8.69263C3.48727 8.43079 3.1267 8.08222 2.8508 7.67008C2.5749 7.25795 2.39 6.79175 2.30841 6.30256C2.22684 5.81337 2.25045 5.31238 2.37769 4.83306Z" fill="#F8CE46"/>
</svg>
