<svg width="69" height="66" fill="none" xmlns="http://www.w3.org/2000/svg"><path fill-rule="evenodd" clip-rule="evenodd" d="m56.61 15.221 6.085-.778 3.45 6.182-3.861 4.366c.47 1.342.84 2.716 1.107 4.112L69 31.129l-.106 7.08-5.532 1.853c-.27 1.396-.64 2.77-1.108 4.112l3.85 4.566-3.632 6.082-5.71-1.175a28.945 28.945 0 0 1-3.02 3.008l1.047 5.873-6.184 3.45-2.92-2.58V52.21a20.827 20.827 0 0 0 4.952-31.087l5.976-5.92-.003.017Zm-38.062 6.167a20.83 20.83 0 0 0 5.145 30.835V63.23l-3.216 2.707-6.082-3.632 1.16-5.706a28.944 28.944 0 0 1-3.007-3.022l-5.873 1.048-3.45-6.184 3.861-4.367a28.956 28.956 0 0 1-1.107-4.111L.37 37.935l.103-7.08 5.532-1.853a29.3 29.3 0 0 1 1.108-4.111l-3.847-4.567 3.63-6.082 5.67 1.154 5.982 5.991Z" fill="url(#a)"/><path fill-rule="evenodd" clip-rule="evenodd" d="m14.701 6.67 6.185-3.451L25.25 7.08c1.34-.47 2.715-.84 4.11-1.107l2.027-5.61 7.08.103L40.317 6c1.396.27 2.77.64 4.112 1.107l4.566-3.847 6.08 3.633-1.16 5.706c.418.362.827.738 1.224 1.127l-5.926 5.926c-1-.96-2.093-1.819-3.263-2.563l-3.453-2.2v20.768l-3.856 2.226-3.856 2.226-3.856-2.226-3.856-2.226V14.875l-3.453 2.2a20.951 20.951 0 0 0-3.48 2.789l-5.924-5.923c.488-.482.995-.95 1.522-1.404L14.7 6.67Z" fill="#fff"/><defs><linearGradient id="a" x1="51.568" y1="47.975" x2="20.718" y2="19.862" gradientUnits="userSpaceOnUse"><stop stop-color="#30BCD0"/><stop offset="1" stop-color="#CA28CC"/></linearGradient></defs></svg>