<svg width="11" height="11" viewBox="0 0 11 11" fill="none" xmlns="http://www.w3.org/2000/svg">
<path d="M2.90996 5.04167H1.375C1.25344 5.04167 1.13686 5.08996 1.05091 5.17591C0.964955 5.26186 0.916667 5.37844 0.916667 5.5V6.875H0V5.5C0 5.13533 0.144866 4.78559 0.402728 4.52773C0.660591 4.26987 1.01033 4.125 1.375 4.125H3.45446C3.21468 4.39195 3.02967 4.7034 2.90996 5.04167ZM9.625 4.125H7.54554C7.78532 4.39195 7.97033 4.7034 8.09004 5.04167H9.625C9.74656 5.04167 9.86314 5.08996 9.94909 5.17591C10.035 5.26186 10.0833 5.37844 10.0833 5.5V6.875H11V5.5C11 5.13533 10.8551 4.78559 10.5973 4.52773C10.3394 4.26987 9.98967 4.125 9.625 4.125ZM7.33333 5.95833C7.33333 5.59573 7.22581 5.24128 7.02436 4.93979C6.82291 4.6383 6.53658 4.40332 6.20159 4.26455C5.86659 4.12579 5.49797 4.08949 5.14233 4.16023C4.7867 4.23097 4.46003 4.40557 4.20364 4.66197C3.94724 4.91837 3.77263 5.24504 3.70189 5.60067C3.63115 5.9563 3.66746 6.32492 3.80622 6.65992C3.94498 6.99492 4.17996 7.28125 4.48145 7.48269C4.78295 7.68414 5.1374 7.79167 5.5 7.79167C5.98623 7.79167 6.45255 7.59851 6.79636 7.2547C7.14018 6.91088 7.33333 6.44456 7.33333 5.95833ZM6.41667 5.95833C6.41667 6.13963 6.36291 6.31686 6.26218 6.46761C6.16146 6.61835 6.01829 6.73584 5.85079 6.80522C5.68329 6.8746 5.49898 6.89276 5.32117 6.85739C5.14335 6.82202 4.98002 6.73471 4.85182 6.60651C4.72362 6.47832 4.63632 6.31498 4.60095 6.13717C4.56558 5.95935 4.58373 5.77504 4.65311 5.60754C4.72249 5.44004 4.83998 5.29688 4.99073 5.19615C5.14147 5.09543 5.3187 5.04167 5.5 5.04167C5.74311 5.04167 5.97627 5.13824 6.14818 5.31015C6.32009 5.48206 6.41667 5.71522 6.41667 5.95833ZM8.25 9.625C8.25 9.26033 8.10513 8.91059 7.84727 8.65273C7.58941 8.39487 7.23967 8.25 6.875 8.25H4.125C3.76033 8.25 3.41059 8.39487 3.15273 8.65273C2.89487 8.91059 2.75 9.26033 2.75 9.625V11H3.66667V9.625C3.66667 9.50344 3.71496 9.38686 3.80091 9.30091C3.88686 9.21496 4.00344 9.16667 4.125 9.16667H6.875C6.99656 9.16667 7.11314 9.21496 7.19909 9.30091C7.28505 9.38686 7.33333 9.50344 7.33333 9.625V11H8.25V9.625ZM10.0833 1.83333C10.0833 1.47073 9.97581 1.11628 9.77436 0.814789C9.57291 0.513299 9.28658 0.278316 8.95159 0.139555C8.61659 0.000794352 8.24797 -0.0355118 7.89233 0.0352278C7.5367 0.105967 7.21003 0.280575 6.95364 0.536972C6.69724 0.793368 6.52263 1.12004 6.45189 1.47567C6.38115 1.8313 6.41746 2.19992 6.55622 2.53492C6.69498 2.86992 6.92997 3.15625 7.23146 3.3577C7.53295 3.55914 7.8874 3.66667 8.25 3.66667C8.73623 3.66667 9.20255 3.47351 9.54636 3.1297C9.89018 2.78588 10.0833 2.31956 10.0833 1.83333ZM9.16667 1.83333C9.16667 2.01463 9.11291 2.19186 9.01218 2.34261C8.91146 2.49335 8.76829 2.61084 8.60079 2.68022C8.43329 2.7496 8.24898 2.76776 8.07117 2.73239C7.89335 2.69702 7.73002 2.60971 7.60182 2.48152C7.47362 2.35332 7.38632 2.18998 7.35095 2.01217C7.31558 1.83435 7.33373 1.65004 7.40311 1.48254C7.47249 1.31504 7.58998 1.17188 7.74073 1.07115C7.89147 0.970429 8.0687 0.916668 8.25 0.916668C8.49312 0.916668 8.72627 1.01324 8.89818 1.18515C9.07009 1.35706 9.16667 1.59022 9.16667 1.83333ZM4.58333 1.83333C4.58333 1.47073 4.47581 1.11628 4.27436 0.814789C4.07291 0.513299 3.78658 0.278316 3.45159 0.139555C3.11659 0.000794352 2.74797 -0.0355118 2.39233 0.0352278C2.0367 0.105967 1.71003 0.280575 1.45364 0.536972C1.19724 0.793368 1.02263 1.12004 0.951894 1.47567C0.881154 1.8313 0.91746 2.19992 1.05622 2.53492C1.19498 2.86992 1.42996 3.15625 1.73145 3.3577C2.03294 3.55914 2.3874 3.66667 2.75 3.66667C3.23623 3.66667 3.70255 3.47351 4.04636 3.1297C4.39018 2.78588 4.58333 2.31956 4.58333 1.83333ZM3.66667 1.83333C3.66667 2.01463 3.61291 2.19186 3.51218 2.34261C3.41146 2.49335 3.26829 2.61084 3.10079 2.68022C2.93329 2.7496 2.74898 2.76776 2.57117 2.73239C2.39335 2.69702 2.23002 2.60971 2.10182 2.48152C1.97362 2.35332 1.88632 2.18998 1.85095 2.01217C1.81558 1.83435 1.83373 1.65004 1.90311 1.48254C1.97249 1.31504 2.08998 1.17188 2.24073 1.07115C2.39147 0.970429 2.5687 0.916668 2.75 0.916668C2.99312 0.916668 3.22627 1.01324 3.39818 1.18515C3.57009 1.35706 3.66667 1.59022 3.66667 1.83333Z" fill="#F8CE46"/>
</svg>
