<svg width="11" height="11" viewBox="0 0 11 11" fill="none" xmlns="http://www.w3.org/2000/svg">
<path d="M7.5625 0C5.63475 0 4.125 0.906125 4.125 2.0625V3.24821C3.90317 3.22208 3.67354 3.20833 3.4375 3.20833C1.50975 3.20833 0 4.11446 0 5.27083V8.9375C0 10.0939 1.50975 11 3.4375 11C5.00317 11 6.29338 10.4023 6.72237 9.55808C6.996 9.59796 7.27558 9.625 7.5625 9.625C9.49025 9.625 11 8.71887 11 7.5625V2.0625C11 0.906125 9.49025 0 7.5625 0ZM7.5625 0.916667C9.00533 0.916667 10.0833 1.52167 10.0833 2.0625C10.0833 2.60333 9.00533 3.20833 7.5625 3.20833C6.11967 3.20833 5.04167 2.60333 5.04167 2.0625C5.04167 1.52167 6.11967 0.916667 7.5625 0.916667ZM3.4375 4.125C4.88033 4.125 5.95833 4.73 5.95833 5.27083C5.95833 5.81167 4.88033 6.41667 3.4375 6.41667C1.99467 6.41667 0.916667 5.81167 0.916667 5.27083C0.916667 4.73 1.99467 4.125 3.4375 4.125ZM0.916667 6.68342C1.54 7.08446 2.43054 7.33333 3.4375 7.33333C4.44446 7.33333 5.335 7.08446 5.95833 6.68342V7.10417C5.95833 7.645 4.88033 8.25 3.4375 8.25C1.99467 8.25 0.916667 7.645 0.916667 7.10417V6.68342ZM3.4375 10.0833C1.99467 10.0833 0.916667 9.47833 0.916667 8.9375V8.51675C1.54 8.91779 2.43054 9.16667 3.4375 9.16667C4.44446 9.16667 5.335 8.91779 5.95833 8.51675V8.9375C5.95833 9.47833 4.88033 10.0833 3.4375 10.0833ZM7.5625 8.70833C7.32692 8.70833 7.09867 8.68679 6.875 8.65517V7.74767C7.1005 7.77425 7.32875 7.79167 7.5625 7.79167C8.56946 7.79167 9.46 7.54279 10.0833 7.14175V7.5625C10.0833 8.10333 9.00533 8.70833 7.5625 8.70833ZM7.5625 6.875C7.32692 6.875 7.09867 6.85346 6.875 6.82183V5.91433C7.1005 5.94092 7.32875 5.95833 7.5625 5.95833C8.56946 5.95833 9.46 5.70946 10.0833 5.30842V5.72917C10.0833 6.27 9.00533 6.875 7.5625 6.875ZM7.5625 5.04167C7.31408 5.04167 7.07392 5.01829 6.83925 4.98346C6.7485 4.57692 6.46846 4.21163 6.05046 3.91967C6.50513 4.05029 7.01571 4.12546 7.5625 4.12546C8.56946 4.12546 9.46 3.87658 10.0833 3.47554V3.89629C10.0833 4.43713 9.00533 5.04213 7.5625 5.04213V5.04167Z" fill="#F8CE46"/>
</svg>
