<svg width="27" height="27" viewBox="0 0 27 27" fill="none" xmlns="http://www.w3.org/2000/svg">
<path d="M18.8439 13.9199L18.8946 13.1011C17.3319 13.0038 15.865 12.3145 14.7927 11.1735C13.7205 10.0325 13.1236 8.52562 13.1236 6.95986C13.1236 5.3941 13.7205 3.88723 14.7927 2.74621C15.865 1.6052 17.3319 0.915878 18.8946 0.818667L18.8439 -9.98299e-05C15.178 0.22705 12.3062 3.28425 12.3062 6.95988C12.3062 10.6355 15.178 13.6927 18.8439 13.9199ZM25.4328 6.95989C25.4309 8.52467 24.8337 10.0301 23.7624 11.1707C22.691 12.3112 21.2259 13.0014 19.6643 13.1011L19.715 13.9199C23.3814 13.6927 26.2532 10.6355 26.2532 6.95989C26.2532 3.28425 23.3814 0.227051 19.7153 -9.97537e-05L19.6645 0.818667C21.2261 0.918444 22.6912 1.60865 23.7625 2.74918C24.8337 3.88972 25.4309 5.39514 25.4328 6.95989Z" fill="white"/>
<path d="M16.1466 10.7545C17.0279 11.4837 18.1358 11.8826 19.2796 11.8826C20.4234 11.8826 21.5313 11.4837 22.4125 10.7545L21.8895 10.1223C21.1554 10.7298 20.2324 11.0622 19.2796 11.0622C18.3267 11.0622 17.4037 10.7298 16.6697 10.1223L16.1466 10.7545ZM23.074 10.093C23.8032 9.21185 24.2022 8.1039 24.2022 6.96011C24.2022 5.81633 23.8032 4.70837 23.074 3.82718L22.4417 4.35019C23.0493 5.08426 23.3817 6.00726 23.3817 6.96011C23.3817 7.91297 23.0493 8.83597 22.4417 9.57004L23.074 10.093ZM16.6697 3.798C17.4037 3.19051 18.3267 2.85812 19.2796 2.85812C20.2324 2.85812 21.1554 3.19051 21.8895 3.798L22.4125 3.16573C21.5313 2.43654 20.4234 2.03758 19.2796 2.03758C18.1358 2.03758 17.0279 2.43654 16.1466 3.16573L16.6697 3.798ZM15.4852 3.82718C14.756 4.70837 14.357 5.81633 14.357 6.96011C14.357 8.1039 14.756 9.21186 15.4852 10.093L16.1174 9.57004C15.5099 8.83598 15.1775 7.91297 15.1775 6.96011C15.1775 6.00725 15.5099 5.08425 16.1174 4.35019L15.4852 3.82718ZM12.7362 15.3431L12.0587 15.8057C12.9296 17.0835 13.2873 18.6424 13.0604 20.172C12.8335 21.7016 12.0387 23.0896 10.8344 24.0596C9.63007 25.0295 8.10455 25.5102 6.56173 25.4058C5.01891 25.3014 3.57201 24.6197 2.50926 23.4965L1.91385 24.0605C2.56268 24.7513 3.34667 25.3012 4.21709 25.6761C5.08751 26.051 6.02574 26.2429 6.97346 26.2397C10.8186 26.2397 13.9469 23.1114 13.9469 19.2662C13.9489 17.8662 13.5268 16.4985 12.7362 15.3431ZM1.30751 23.3278L1.97409 22.849C1.0545 21.5666 0.663031 19.9797 0.880662 18.4168C1.09829 16.8538 1.90837 15.4343 3.14332 14.4519C4.37827 13.4695 5.94359 12.9994 7.51546 13.1388C9.08733 13.2782 10.5455 14.0164 11.5883 15.2009L12.2036 14.6582C11.5493 13.9156 10.7447 13.3207 9.84295 12.9129C8.94124 12.5051 7.9631 12.2937 6.97346 12.2928C3.12831 12.2928 -1.4313e-05 15.421 -1.46491e-05 19.2662C-0.00299787 20.724 0.454617 22.1455 1.30751 23.3278Z" fill="white"/>
<path d="M12.1375 20.5991L11.3431 20.394C11.172 21.0422 10.8601 21.6447 10.4297 22.1587C9.99938 22.6727 9.46108 23.0856 8.8531 23.368L9.19613 24.1133C9.91726 23.7837 10.5556 23.2971 11.0645 22.6891C11.5734 22.0811 11.94 21.367 12.1375 20.5991ZM12.3063 19.266C12.3063 19.1179 12.3001 18.9686 12.2879 18.8219L11.4703 18.8896C11.4909 19.1401 11.4909 19.3918 11.4703 19.6423L12.2879 19.71C12.3001 19.5623 12.3062 19.4142 12.3063 19.266ZM9.19613 14.4187L8.8531 15.1639C9.46108 15.4463 9.99938 15.8592 10.4297 16.3732C10.8601 16.8872 11.172 17.4897 11.3431 18.1379L12.1375 17.9328C11.94 17.1649 11.5734 16.4509 11.0645 15.8429C10.5556 15.2349 9.91725 14.7483 9.19613 14.4187ZM1.80969 17.9328L2.60405 18.1379C2.77523 17.4897 3.08709 16.8872 3.51745 16.3732C3.94781 15.8592 4.48611 15.4463 5.09409 15.1639L4.75106 14.4186C4.02994 14.7482 3.39159 15.2348 2.88268 15.8428C2.37378 16.4508 2.00718 17.1649 1.80969 17.9328ZM1.64094 19.266C1.64094 19.414 1.6471 19.5633 1.65925 19.71L2.47673 19.6423C2.45614 19.3918 2.45614 19.1401 2.47673 18.8896L1.65909 18.8219C1.6471 18.9686 1.64094 19.1179 1.64094 19.266ZM4.75106 24.1131L5.09409 23.368C4.4861 23.0856 3.9478 22.6727 3.51743 22.1587C3.08707 21.6447 2.77522 21.0422 2.60405 20.394L1.80969 20.5991C2.00719 21.367 2.37379 22.081 2.88269 22.689C3.3916 23.297 4.02995 23.7835 4.75106 24.1131ZM9.75478 19.8297C9.70233 19.7643 9.63112 19.7166 9.55072 19.6929C9.47032 19.6692 9.3846 19.6707 9.30509 19.6972L6.9736 20.4744L4.6421 19.6972C4.56262 19.6708 4.47695 19.6693 4.3966 19.693C4.31626 19.7167 4.24509 19.7644 4.19266 19.8297C4.14023 19.895 4.10906 19.9748 4.10333 20.0584C4.0976 20.142 4.1176 20.2253 4.16062 20.2972L6.62185 24.3992C6.65829 24.4599 6.70984 24.5102 6.77149 24.5451C6.83313 24.58 6.90276 24.5984 6.9736 24.5984C7.04443 24.5984 7.11406 24.58 7.17571 24.5451C7.23735 24.5102 7.2889 24.4599 7.32535 24.3992L9.78657 20.2972C9.82964 20.2253 9.84967 20.142 9.84399 20.0584C9.83831 19.9749 9.80718 19.895 9.75478 19.8297ZM6.9736 23.3911L5.43461 20.8262L6.84387 21.2959C6.92807 21.324 7.01912 21.324 7.10332 21.2959L8.51258 20.8262L6.9736 23.3911ZM6.9736 13.9333C6.90276 13.9333 6.83313 13.9516 6.77149 13.9865C6.70985 14.0214 6.65829 14.0717 6.62185 14.1325L4.16062 18.2345C4.11751 18.3064 4.09744 18.3897 4.10312 18.4733C4.10881 18.557 4.13997 18.6368 4.19241 18.7022C4.24486 18.7676 4.31607 18.8153 4.39647 18.839C4.47686 18.8627 4.56259 18.8612 4.6421 18.8347L6.9736 18.0575L9.30509 18.8347C9.38461 18.8612 9.47033 18.8627 9.55072 18.839C9.63112 18.8153 9.70233 18.7676 9.75478 18.7022C9.80722 18.6368 9.83839 18.557 9.84407 18.4733C9.84975 18.3897 9.82969 18.3064 9.78657 18.2345L7.32535 14.1325C7.2889 14.0717 7.23735 14.0214 7.17571 13.9865C7.11406 13.9516 7.04443 13.9333 6.9736 13.9333ZM7.10332 17.236C7.01912 17.2079 6.92807 17.2079 6.84387 17.236L5.43461 17.7057L6.9736 15.1408L8.51258 17.7057L7.10332 17.236ZM22.9716 16.8047L22.1512 16.8047L22.1512 15.9843L22.9716 15.9843L22.9716 16.8047ZM22.9716 15.1639L22.1512 15.1639L22.1512 14.3435L22.9716 14.3435L22.9716 15.1639ZM22.1511 21.4195C22.1508 21.7186 22.0319 22.0053 21.8204 22.2168C21.6089 22.4283 21.3222 22.5472 21.0231 22.5476L14.3573 22.5476C14.2761 22.5476 14.1968 22.5716 14.1294 22.6167C14.0619 22.6618 14.0093 22.7259 13.9783 22.8008C13.9472 22.8758 13.9391 22.9582 13.9549 23.0378C13.9708 23.1174 14.0098 23.1905 14.0672 23.2479L15.708 24.8887L16.2882 24.3085L15.3476 23.368L21.0231 23.368C21.5397 23.3674 22.0349 23.1619 22.4002 22.7967C22.7655 22.4314 22.971 21.9361 22.9716 21.4195L22.9716 17.6251L22.1511 17.6251L22.1511 21.4195ZM4.10217 10.2415L3.28176 10.2415L3.28176 9.42105L4.10217 9.42105L4.10217 10.2415ZM4.10217 11.8823L3.28176 11.8823L3.28176 11.0619L4.10217 11.0619L4.10217 11.8823ZM4.10217 4.80626C4.10251 4.50718 4.22147 4.22045 4.43295 4.00897C4.64442 3.79749 4.93115 3.67853 5.23023 3.67819L11.896 3.67819C11.9772 3.6782 12.0565 3.65414 12.124 3.60907C12.1914 3.56399 12.244 3.49993 12.275 3.42497C12.3061 3.35001 12.3142 3.26753 12.2984 3.18796C12.2826 3.10839 12.2435 3.03529 12.1861 2.97793L10.5453 1.33711L9.96517 1.91724L10.9058 2.85779L5.23023 2.85779C4.71364 2.85837 4.21838 3.06384 3.8531 3.42913C3.48782 3.79441 3.28234 4.28967 3.28176 4.80626L3.28176 8.60064L4.10217 8.60064L4.10217 4.80626Z" fill="white"/>
<path fill-rule="evenodd" clip-rule="evenodd" d="M18.1582 4.49222L17.646 4.77789L17.7329 5.26492C17.6893 5.30242 17.6473 5.34114 17.607 5.38109L18.0975 5.8716C18.185 5.78455 18.2816 5.7071 18.3856 5.64055L18.6716 5.45841V7.17915L18.9908 7.36348L19.31 7.54781L19.6292 7.36348L19.9483 7.17915V5.45841L20.2344 5.64055C20.3312 5.70216 20.4217 5.77323 20.5045 5.85273L20.9952 5.36203C20.9622 5.32978 20.9283 5.29869 20.8936 5.26876L20.9897 4.79621L20.4863 4.49552L20.1083 4.81417C19.9972 4.77546 19.8835 4.74484 19.768 4.72255L19.6149 4.26447L19.0285 4.25586L18.8607 4.72035C18.7448 4.74245 18.6308 4.77307 18.5195 4.81197L18.1582 4.49222ZM21.6202 5.42235L21.1163 5.48666L21.1165 5.48685L20.6218 5.97699C20.7808 6.16625 20.8973 6.38747 20.9633 6.62567C21.0293 6.86387 21.0434 7.11349 21.0045 7.35759C20.9656 7.60171 20.8748 7.83462 20.738 8.04051C20.6012 8.24643 20.4218 8.42054 20.2119 8.55104V9.47727L20.4536 9.69111L20.9657 9.40545L20.8789 8.91915C20.9683 8.84241 21.052 8.75919 21.1292 8.67014L21.6019 8.76633L21.9026 8.26281L21.5837 7.88462C21.6225 7.77356 21.6531 7.65985 21.6754 7.54436L22.1334 7.39099L22.1422 6.80465L21.6777 6.63681C21.6556 6.52106 21.625 6.40707 21.5861 6.29581L21.9059 5.9343L21.6202 5.42235ZM17.6343 6.64375C17.6972 6.40689 17.8098 6.18615 17.9647 5.99623L17.4691 5.50113L16.9996 5.40567L16.6991 5.9092L17.0178 6.28739C16.979 6.39844 16.9484 6.51216 16.9262 6.62765L16.4681 6.78101L16.4595 7.36736L16.924 7.5352C16.9461 7.65102 16.9767 7.76506 17.0156 7.87637L16.6958 8.23789L16.9815 8.75003L17.468 8.66317C17.5447 8.75255 17.628 8.83614 17.717 8.91329L17.621 9.38584L18.1245 9.68652L18.3907 9.46225V8.55085C18.1826 8.42147 18.0044 8.24923 17.8681 8.04559C17.7318 7.84194 17.6404 7.61159 17.6001 7.36987C17.5598 7.12815 17.5715 6.8806 17.6343 6.64375Z" fill="white"/>
</svg>
