<svg width="16" height="26" viewBox="0 0 16 26" fill="none" xmlns="http://www.w3.org/2000/svg">
<path d="M15.2414 26H0V23.3104C0.0506331 21.7599 0.412192 20.2386 1.06067 18.8474C1.70915 17.4562 2.62971 16.227 3.76123 15.2414C2.62971 14.2558 1.70915 13.0266 1.06067 11.6354C0.412192 10.2442 0.0506331 8.72291 0 7.17244C0 6.4591 0.267631 5.77498 0.744016 5.27057C1.2204 4.76616 1.86652 4.48279 2.54023 4.48279H12.7011C13.3749 4.48279 14.021 4.76616 14.4974 5.27057C14.9738 5.77498 15.2414 6.4591 15.2414 7.17244C15.1914 8.7215 14.8316 10.2417 14.1857 11.6326C13.5398 13.0236 12.6226 14.2536 11.4945 15.2414C12.6226 16.2293 13.5398 17.4593 14.1857 18.8502C14.8316 20.2411 15.1914 21.7613 15.2414 23.3104V26ZM1.69349 24.2069H13.5479V23.3104C13.5479 19.9268 11.431 17.4362 9.65965 15.9434L8.82645 15.2414L9.65965 14.5394C11.431 13.0466 13.5479 10.556 13.5479 7.17244C13.5479 6.93466 13.4587 6.70662 13.2999 6.53849C13.1411 6.37035 12.9257 6.27589 12.7011 6.27589H2.54023C2.31566 6.27589 2.10029 6.37035 1.94149 6.53849C1.7827 6.70662 1.69349 6.93466 1.69349 7.17244C1.69349 10.556 3.81712 13.0458 5.59867 14.5385L6.43525 15.2414L5.59613 15.9443C3.81712 17.4371 1.69349 19.9268 1.69349 23.3104V24.2069ZM7.63593 18.8115C8.26131 19.3304 8.81508 19.9394 9.28115 20.6207H5.98478M7.63254 16.5979C6.24643 17.5599 3.88232 19.5834 3.45471 22.4138H11.7884C11.365 19.5592 9.00427 17.5455 7.63254 16.5979Z" fill="#5E616A"/>
<rect x="4.48291" y="3.58618" width="6.27586" height="4.48276" fill="#393A3E"/>
<path d="M10.4451 3.17886V2.63151C10.4451 1.17817 9.18065 0 7.62091 0C6.06117 0 4.79677 1.17817 4.79677 2.6315V3.17884C4.05475 3.53168 3.58733 4.24203 3.58643 5.01826V6.89791C3.58777 8.0393 4.58044 8.96428 5.80539 8.96552H9.43643C10.6614 8.96427 11.6541 8.0393 11.6554 6.89791V5.01828C11.6545 4.24205 11.1871 3.53168 10.4451 3.17886ZM7.62091 1.12779C8.51218 1.12779 9.2347 1.80102 9.2347 2.6315V2.95066H6.00712V2.6315C6.00712 1.80102 6.72964 1.12779 7.62091 1.12779ZM10.4451 6.89791C10.4451 7.41696 9.99349 7.83773 9.43645 7.83773H5.80541C5.24836 7.83773 4.79679 7.41696 4.79679 6.89791V5.01828C4.79679 4.49923 5.24836 4.07846 5.80541 4.07846H9.43645C9.99349 4.07846 10.4451 4.49923 10.4451 5.01828V6.89791Z" fill="#5E616A"/>
<path d="M7.4192 5.20623H7.82264C8.15687 5.20623 8.42781 5.4587 8.42781 5.77013C8.42781 6.08155 8.15687 6.33402 7.82264 6.33402H7.4192C7.08497 6.33402 6.81402 6.08155 6.81402 5.77013C6.81402 5.4587 7.08497 5.20623 7.4192 5.20623Z" fill="#5E616A"/>
</svg>
