<svg width="11" height="13" viewBox="0 0 11 13" fill="none" xmlns="http://www.w3.org/2000/svg">
<path d="M0.9 6.9582V6.95833L0.9 9.70833L0.9 9.70845C0.900745 10.3419 1.14812 10.9496 1.58844 11.398C2.02882 11.8466 2.62628 12.0992 3.24988 12.1H3.25H7.75H7.75012C8.37372 12.0992 8.97118 11.8466 9.41156 11.398C9.85188 10.9496 10.0993 10.3419 10.1 9.70845V9.70833V6.95833V6.9582C10.0994 6.49377 9.96594 6.03944 9.71576 5.65076C9.47748 5.28057 9.14308 4.98513 8.75 4.79702V4.20833C8.75 3.3315 8.40803 2.49021 7.79874 1.86964C7.1894 1.24901 6.36255 0.9 5.5 0.9C4.63745 0.9 3.8106 1.24901 3.20126 1.86964C2.59197 2.49021 2.25 3.3315 2.25 4.20833V4.79702C1.85692 4.98513 1.52252 5.28057 1.28424 5.65076C1.03406 6.03944 0.9006 6.49377 0.9 6.9582ZM3.35 4.20833C3.35 3.62648 3.57695 3.06882 3.98037 2.65794C4.38372 2.24712 4.93038 2.01667 5.5 2.01667C6.06962 2.01667 6.61628 2.24712 7.01963 2.65794C7.42304 3.06882 7.65 3.62648 7.65 4.20833V4.56667H3.35V4.20833ZM9 9.70833C9 10.0471 8.86787 10.3716 8.63324 10.6105C8.39867 10.8495 8.08092 10.9833 7.75 10.9833H3.25C2.91908 10.9833 2.60133 10.8495 2.36676 10.6105C2.13213 10.3716 2 10.0471 2 9.70833V6.95833C2 6.6196 2.13213 6.29509 2.36676 6.05612C2.60133 5.81721 2.91908 5.68333 3.25 5.68333H7.75C8.08092 5.68333 8.39867 5.81721 8.63324 6.05612C8.86787 6.29509 9 6.6196 9 6.95833V9.70833ZM5.5 7.31667C5.35353 7.31667 5.21344 7.37595 5.11045 7.48085C5.00751 7.58569 4.95 7.72751 4.95 7.875V8.79167C4.95 8.93916 5.00751 9.08097 5.11045 9.18582C5.21344 9.29072 5.35353 9.35 5.5 9.35C5.64647 9.35 5.78656 9.29072 5.88955 9.18582C5.99249 9.08097 6.05 8.93916 6.05 8.79167V7.875C6.05 7.72751 5.99249 7.58569 5.88955 7.48085C5.78656 7.37595 5.64647 7.31667 5.5 7.31667Z" fill="#F8CE46" stroke="#F8CE46" stroke-width="0.2"/>
</svg>
